<svg width="1289" height="1134" viewBox="0 0 1289 1134" fill="none" xmlns="http://www.w3.org/2000/svg">
<path fill-rule="evenodd" clip-rule="evenodd" d="M643.397 12.3487C719.652 20.893 792.951 37.8409 864.217 66.2847C938.891 96.0884 1011.79 129.647 1071.68 183.286C1137.08 241.849 1192.56 310.984 1227.44 391.548C1265.62 479.735 1304.47 577.194 1282.74 670.802C1261.02 764.393 1168.59 820.857 1110.1 897.075C1050.55 974.662 1025.38 1094.14 933.072 1126.43C838.4 1159.55 742.748 1074.08 643.397 1060.34C558.581 1048.6 469.548 1082.73 389.908 1051.28C308.906 1019.3 255.705 944.808 194.344 883.002C127.324 815.497 38.193 760.35 10.6632 669.293C-16.9966 577.806 14.4555 478.862 44.7527 388.214C73.5371 302.093 119.672 222.919 181.943 156.833C241.788 93.3225 314.115 40.0506 397.389 13.9768C476.641 -10.8376 560.868 3.10137 643.397 12.3487Z" fill="#262630"/>
</svg>
