<svg viewBox="0 0 270 62" fill="none" xmlns="http://www.w3.org/2000/svg">
<rect x="201.5" y="32.5" width="16" height="16" rx="1.5" fill="#262630" stroke="#23232D"/>
<path d="M207 40C206.45 40 206 40.45 206 41C206 41.55 206.45 42 207 42C207.55 42 208 41.55 208 41C208 40.45 207.55 40 207 40ZM213 40C212.45 40 212 40.45 212 41C212 41.55 212.45 42 213 42C213.55 42 214 41.55 214 41C214 40.45 213.55 40 213 40ZM210 40C209.45 40 209 40.45 209 41C209 41.55 209.45 42 210 42C210.55 42 211 41.55 211 41C211 40.45 210.55 40 210 40Z" fill="white"/>
<rect x="7.5" y="32.5" width="190" height="16" rx="1.5" fill="#262630" stroke="#23232D"/>
<path d="M15.6418 40.9326H12.6491V43.543H16.09V44H12.1086V37.6016H16.0681V38.063H12.6491V40.4756H15.6418V40.9326ZM16.9821 43.6836C16.9821 43.5811 17.0144 43.4946 17.0788 43.4243C17.1462 43.3511 17.2385 43.3145 17.3557 43.3145C17.4729 43.3145 17.5651 43.3511 17.6325 43.4243C17.6999 43.4946 17.7336 43.5811 17.7336 43.6836C17.7336 43.7861 17.6999 43.8711 17.6325 43.9385C17.5651 44.0029 17.4729 44.0352 17.3557 44.0352C17.2385 44.0352 17.1462 44.0029 17.0788 43.9385C17.0144 43.8711 16.9821 43.7861 16.9821 43.6836ZM16.9909 39.6274C16.9909 39.5249 17.0231 39.4385 17.0876 39.3682C17.155 39.2949 17.2473 39.2583 17.3645 39.2583C17.4816 39.2583 17.5739 39.2949 17.6413 39.3682C17.7087 39.4385 17.7424 39.5249 17.7424 39.6274C17.7424 39.73 17.7087 39.8149 17.6413 39.8823C17.5739 39.9468 17.4816 39.979 17.3645 39.979C17.2473 39.979 17.155 39.9468 17.0876 39.8823C17.0231 39.8149 16.9909 39.73 16.9909 39.6274ZM18.5246 37.6016H19.0388L21.7106 44.5493H21.1965L18.5246 37.6016ZM26.1975 41.0117H23.2136V44H22.673V37.6016H26.6369V38.063H23.2136V40.5503H26.1975V41.0117ZM27.2258 41.5522C27.2258 41.0952 27.3137 40.6836 27.4895 40.3174C27.6682 39.9512 27.9187 39.667 28.2409 39.4648C28.5661 39.2598 28.9338 39.1572 29.3439 39.1572C29.9768 39.1572 30.4895 39.3799 30.882 39.8252C31.2746 40.2676 31.4709 40.855 31.4709 41.5874V41.6973C31.4709 42.1572 31.3815 42.5718 31.2028 42.9409C31.0271 43.3071 30.778 43.5898 30.4558 43.7891C30.1335 43.9883 29.7658 44.0879 29.3527 44.0879C28.7229 44.0879 28.2102 43.8667 27.8147 43.4243C27.4221 42.979 27.2258 42.3901 27.2258 41.6577V41.5522ZM27.7531 41.6973C27.7531 42.2656 27.8996 42.7329 28.1926 43.0991C28.4885 43.4624 28.8752 43.644 29.3527 43.644C29.8273 43.644 30.2111 43.4624 30.5041 43.0991C30.8 42.7329 30.948 42.251 30.948 41.6533V41.5522C30.948 41.189 30.8806 40.8564 30.7458 40.5547C30.611 40.2529 30.4221 40.02 30.1789 39.856C29.9357 39.689 29.6574 39.6055 29.3439 39.6055C28.8752 39.6055 28.4929 39.79 28.197 40.1592C27.9011 40.5254 27.7531 41.0059 27.7531 41.6006V41.6973ZM34.758 39.6934C34.6467 39.6729 34.528 39.6626 34.4021 39.6626C34.0739 39.6626 33.7956 39.7549 33.5671 39.9395C33.3415 40.1211 33.1804 40.3862 33.0837 40.7349V44H32.5607V39.2451H33.0749L33.0837 40.001C33.362 39.4385 33.8088 39.1572 34.424 39.1572C34.5705 39.1572 34.6862 39.1763 34.7712 39.2144L34.758 39.6934ZM36.6301 38.0278V39.2451H37.6145V39.6758H36.6301V42.8442C36.6301 43.1079 36.677 43.3042 36.7707 43.4331C36.8674 43.562 37.0271 43.6265 37.2497 43.6265C37.3376 43.6265 37.4797 43.6118 37.676 43.5825L37.698 44.0132C37.5603 44.063 37.3728 44.0879 37.1355 44.0879C36.7751 44.0879 36.5129 43.9839 36.3488 43.7759C36.1848 43.5649 36.1027 43.2559 36.1027 42.8486V39.6758H35.2282V39.2451H36.1027V38.0278H36.6301ZM39.2053 39.2451L39.2229 40.0581C39.4016 39.7651 39.6242 39.5425 39.8908 39.3901C40.1574 39.2349 40.4519 39.1572 40.7741 39.1572C41.2839 39.1572 41.6633 39.3008 41.9123 39.5879C42.1613 39.875 42.2873 40.3057 42.2902 40.8799V44H41.7673V40.8755C41.7644 40.4507 41.6735 40.1343 41.4948 39.9263C41.319 39.7183 41.0363 39.6143 40.6467 39.6143C40.3215 39.6143 40.0329 39.7168 39.781 39.9219C39.5319 40.124 39.3474 40.3979 39.2272 40.7437V44H38.7043V39.2451H39.2053ZM44.2414 44H43.7141V39.2451H44.2414V44ZM43.6218 37.8696C43.6218 37.77 43.654 37.6865 43.7185 37.6191C43.7829 37.5488 43.8708 37.5137 43.9821 37.5137C44.0935 37.5137 44.1814 37.5488 44.2458 37.6191C44.3132 37.6865 44.3469 37.77 44.3469 37.8696C44.3469 37.9692 44.3132 38.0527 44.2458 38.1201C44.1814 38.1875 44.0935 38.2212 43.9821 38.2212C43.8708 38.2212 43.7829 38.1875 43.7185 38.1201C43.654 38.0527 43.6218 37.9692 43.6218 37.8696ZM46.4914 38.0278V39.2451H47.4758V39.6758H46.4914V42.8442C46.4914 43.1079 46.5383 43.3042 46.632 43.4331C46.7287 43.562 46.8884 43.6265 47.111 43.6265C47.1989 43.6265 47.341 43.6118 47.5373 43.5825L47.5593 44.0132C47.4216 44.063 47.2341 44.0879 46.9968 44.0879C46.6364 44.0879 46.3742 43.9839 46.2102 43.7759C46.0461 43.5649 45.9641 43.2559 45.9641 42.8486V39.6758H45.0896V39.2451H45.9641V38.0278H46.4914ZM50.4069 44.0879C50.0026 44.0879 49.6364 43.9883 49.3083 43.7891C48.9831 43.5898 48.7297 43.313 48.548 42.9585C48.3664 42.6011 48.2756 42.2012 48.2756 41.7588V41.5698C48.2756 41.1128 48.3635 40.7012 48.5393 40.335C48.718 39.9688 48.9655 39.6816 49.2819 39.4736C49.5983 39.2627 49.9411 39.1572 50.3103 39.1572C50.8874 39.1572 51.3444 39.355 51.6814 39.7505C52.0212 40.1431 52.1911 40.6807 52.1911 41.3633V41.6577H48.7985V41.7588C48.7985 42.2979 48.9523 42.7476 49.26 43.1079C49.5705 43.4653 49.9602 43.644 50.4289 43.644C50.7102 43.644 50.9577 43.5928 51.1716 43.4902C51.3884 43.3877 51.5847 43.2236 51.7605 42.998L52.09 43.2485C51.7033 43.8081 51.1423 44.0879 50.4069 44.0879ZM50.3103 39.6055C49.9147 39.6055 49.5808 39.7505 49.3083 40.0405C49.0388 40.3306 48.8747 40.7202 48.8161 41.2095H51.6682V41.1523C51.6535 40.6953 51.5231 40.3232 51.2771 40.0361C51.031 39.749 50.7087 39.6055 50.3103 39.6055ZM52.7404 37.6016H53.2546L55.9265 44.5493H55.4123L52.7404 37.6016ZM60.4133 41.0117H57.4294V44H56.8889V37.6016H60.8527V38.063H57.4294V40.5503H60.4133V41.0117ZM61.4416 41.5522C61.4416 41.0952 61.5295 40.6836 61.7053 40.3174C61.884 39.9512 62.1345 39.667 62.4567 39.4648C62.7819 39.2598 63.1496 39.1572 63.5598 39.1572C64.1926 39.1572 64.7053 39.3799 65.0979 39.8252C65.4904 40.2676 65.6867 40.855 65.6867 41.5874V41.6973C65.6867 42.1572 65.5974 42.5718 65.4187 42.9409C65.2429 43.3071 64.9939 43.5898 64.6716 43.7891C64.3493 43.9883 63.9816 44.0879 63.5686 44.0879C62.9387 44.0879 62.426 43.8667 62.0305 43.4243C61.6379 42.979 61.4416 42.3901 61.4416 41.6577V41.5522ZM61.9689 41.6973C61.9689 42.2656 62.1154 42.7329 62.4084 43.0991C62.7043 43.4624 63.091 43.644 63.5686 43.644C64.0432 43.644 64.427 43.4624 64.7199 43.0991C65.0158 42.7329 65.1638 42.251 65.1638 41.6533V41.5522C65.1638 41.189 65.0964 40.8564 64.9616 40.5547C64.8269 40.2529 64.6379 40.02 64.3947 39.856C64.1516 39.689 63.8732 39.6055 63.5598 39.6055C63.091 39.6055 62.7087 39.79 62.4128 40.1592C62.1169 40.5254 61.9689 41.0059 61.9689 41.6006V41.6973ZM68.9738 39.6934C68.8625 39.6729 68.7439 39.6626 68.6179 39.6626C68.2897 39.6626 68.0114 39.7549 67.7829 39.9395C67.5573 40.1211 67.3962 40.3862 67.2995 40.7349V44H66.7766V39.2451H67.2907L67.2995 40.001C67.5778 39.4385 68.0246 39.1572 68.6398 39.1572C68.7863 39.1572 68.9021 39.1763 68.987 39.2144L68.9738 39.6934ZM70.8459 38.0278V39.2451H71.8303V39.6758H70.8459V42.8442C70.8459 43.1079 70.8928 43.3042 70.9865 43.4331C71.0832 43.562 71.2429 43.6265 71.4655 43.6265C71.5534 43.6265 71.6955 43.6118 71.8918 43.5825L71.9138 44.0132C71.7761 44.063 71.5886 44.0879 71.3513 44.0879C70.9909 44.0879 70.7287 43.9839 70.5647 43.7759C70.4006 43.5649 70.3186 43.2559 70.3186 42.8486V39.6758H69.444V39.2451H70.3186V38.0278H70.8459ZM73.4211 39.2451L73.4387 40.0581C73.6174 39.7651 73.84 39.5425 74.1066 39.3901C74.3732 39.2349 74.6677 39.1572 74.9899 39.1572C75.4997 39.1572 75.8791 39.3008 76.1281 39.5879C76.3772 39.875 76.5031 40.3057 76.5061 40.8799V44H75.9831V40.8755C75.9802 40.4507 75.8894 40.1343 75.7106 39.9263C75.5349 39.7183 75.2522 39.6143 74.8625 39.6143C74.5373 39.6143 74.2487 39.7168 73.9968 39.9219C73.7478 40.124 73.5632 40.3979 73.4431 40.7437V44H72.9201V39.2451H73.4211ZM78.4572 44H77.9299V39.2451H78.4572V44ZM77.8376 37.8696C77.8376 37.77 77.8698 37.6865 77.9343 37.6191C77.9987 37.5488 78.0866 37.5137 78.198 37.5137C78.3093 37.5137 78.3972 37.5488 78.4616 37.6191C78.529 37.6865 78.5627 37.77 78.5627 37.8696C78.5627 37.9692 78.529 38.0527 78.4616 38.1201C78.3972 38.1875 78.3093 38.2212 78.198 38.2212C78.0866 38.2212 77.9987 38.1875 77.9343 38.1201C77.8698 38.0527 77.8376 37.9692 77.8376 37.8696ZM80.7072 38.0278V39.2451H81.6916V39.6758H80.7072V42.8442C80.7072 43.1079 80.7541 43.3042 80.8479 43.4331C80.9445 43.562 81.1042 43.6265 81.3269 43.6265C81.4147 43.6265 81.5568 43.6118 81.7531 43.5825L81.7751 44.0132C81.6374 44.063 81.4499 44.0879 81.2126 44.0879C80.8522 44.0879 80.59 43.9839 80.426 43.7759C80.2619 43.5649 80.1799 43.2559 80.1799 42.8486V39.6758H79.3054V39.2451H80.1799V38.0278H80.7072ZM84.6228 44.0879C84.2185 44.0879 83.8522 43.9883 83.5241 43.7891C83.1989 43.5898 82.9455 43.313 82.7639 42.9585C82.5822 42.6011 82.4914 42.2012 82.4914 41.7588V41.5698C82.4914 41.1128 82.5793 40.7012 82.7551 40.335C82.9338 39.9688 83.1814 39.6816 83.4978 39.4736C83.8142 39.2627 84.1569 39.1572 84.5261 39.1572C85.1032 39.1572 85.5603 39.355 85.8972 39.7505C86.237 40.1431 86.4069 40.6807 86.4069 41.3633V41.6577H83.0144V41.7588C83.0144 42.2979 83.1682 42.7476 83.4758 43.1079C83.7863 43.4653 84.176 43.644 84.6447 43.644C84.926 43.644 85.1735 43.5928 85.3874 43.4902C85.6042 43.3877 85.8005 43.2236 85.9763 42.998L86.3059 43.2485C85.9191 43.8081 85.3581 44.0879 84.6228 44.0879ZM84.5261 39.6055C84.1306 39.6055 83.7966 39.7505 83.5241 40.0405C83.2546 40.3306 83.0905 40.7202 83.0319 41.2095H85.884V41.1523C85.8693 40.6953 85.739 40.3232 85.4929 40.0361C85.2468 39.749 84.9245 39.6055 84.5261 39.6055ZM92.1726 43.2397C91.9851 43.5063 91.6906 43.7144 91.2893 43.8638C90.8908 44.0132 90.444 44.0879 89.9489 44.0879C89.448 44.0879 89.0026 43.9678 88.613 43.7275C88.2233 43.4873 87.9216 43.1475 87.7077 42.708C87.4939 42.2686 87.3855 41.7646 87.3825 41.1963V40.3877C87.3825 39.5 87.6066 38.7998 88.0549 38.2871C88.5031 37.7715 89.1052 37.5137 89.861 37.5137C90.5202 37.5137 91.0505 37.6821 91.4519 38.019C91.8532 38.353 92.092 38.8145 92.1682 39.4033H91.6276C91.5485 38.9346 91.3566 38.5801 91.052 38.3398C90.7502 38.0967 90.3547 37.9751 89.8654 37.9751C89.2678 37.9751 88.7946 38.1875 88.446 38.6123C88.0974 39.0371 87.923 39.6362 87.923 40.4097V41.1655C87.923 41.6519 88.0051 42.0825 88.1691 42.4575C88.3361 42.8296 88.5734 43.1182 88.8811 43.3232C89.1916 43.5283 89.5476 43.6309 89.9489 43.6309C90.4147 43.6309 90.8147 43.5576 91.1486 43.4111C91.3654 43.3145 91.5266 43.2017 91.632 43.0728V41.4204H89.9138V40.9634H92.1726V43.2397ZM96.5847 44C96.5319 43.8506 96.4982 43.6294 96.4836 43.3364C96.299 43.5767 96.0632 43.7627 95.7761 43.8945C95.4919 44.0234 95.1901 44.0879 94.8708 44.0879C94.4138 44.0879 94.0432 43.9604 93.759 43.7056C93.4777 43.4507 93.3371 43.1284 93.3371 42.7388C93.3371 42.2759 93.529 41.9097 93.9128 41.6401C94.2995 41.3706 94.8371 41.2358 95.5256 41.2358H96.4792V40.6953C96.4792 40.3555 96.3737 40.0889 96.1628 39.8955C95.9548 39.6992 95.6501 39.6011 95.2487 39.6011C94.8825 39.6011 94.5793 39.6948 94.3391 39.8823C94.0988 40.0698 93.9787 40.2954 93.9787 40.5591L93.4514 40.5547C93.4514 40.1768 93.6272 39.8501 93.9787 39.5747C94.3303 39.2964 94.7624 39.1572 95.2751 39.1572C95.8054 39.1572 96.2229 39.2905 96.5275 39.5571C96.8352 39.8208 96.9934 40.1899 97.0022 40.6646V42.9146C97.0022 43.3745 97.0505 43.7188 97.1472 43.9473V44H96.5847ZM94.9323 43.6221C95.2839 43.6221 95.5974 43.5371 95.8728 43.3672C96.1511 43.1973 96.3532 42.9702 96.4792 42.686V41.6401H95.5388C95.0144 41.646 94.6042 41.7427 94.3083 41.9302C94.0124 42.1147 93.8645 42.3696 93.8645 42.6948C93.8645 42.9614 93.9626 43.1826 94.1589 43.3584C94.3581 43.5342 94.6159 43.6221 94.9323 43.6221ZM98.8874 39.2451L98.905 40.0186C99.0808 39.7314 99.3005 39.5161 99.5642 39.3726C99.8278 39.229 100.121 39.1572 100.443 39.1572C101.193 39.1572 101.669 39.4648 101.871 40.0801C102.041 39.7842 102.268 39.5571 102.552 39.3989C102.837 39.2378 103.15 39.1572 103.493 39.1572C104.512 39.1572 105.032 39.7139 105.053 40.8271V44H104.526V40.8667C104.523 40.4419 104.43 40.127 104.249 39.9219C104.07 39.7168 103.777 39.6143 103.37 39.6143C102.992 39.6201 102.673 39.7432 102.412 39.9834C102.151 40.2207 102.006 40.5107 101.977 40.8535V44H101.449V40.8271C101.446 40.4199 101.35 40.1167 101.159 39.9175C100.972 39.7153 100.682 39.6143 100.289 39.6143C99.9582 39.6143 99.674 39.7095 99.4367 39.8999C99.1994 40.0874 99.0236 40.3672 98.9094 40.7393V44H98.382V39.2451H98.8874ZM108.23 44.0879C107.826 44.0879 107.46 43.9883 107.132 43.7891C106.806 43.5898 106.553 43.313 106.371 42.9585C106.19 42.6011 106.099 42.2012 106.099 41.7588V41.5698C106.099 41.1128 106.187 40.7012 106.363 40.335C106.541 39.9688 106.789 39.6816 107.105 39.4736C107.422 39.2627 107.764 39.1572 108.133 39.1572C108.711 39.1572 109.168 39.355 109.505 39.7505C109.844 40.1431 110.014 40.6807 110.014 41.3633V41.6577H106.622V41.7588C106.622 42.2979 106.776 42.7476 107.083 43.1079C107.394 43.4653 107.783 43.644 108.252 43.644C108.533 43.644 108.781 43.5928 108.995 43.4902C109.212 43.3877 109.408 43.2236 109.584 42.998L109.913 43.2485C109.527 43.8081 108.966 44.0879 108.23 44.0879ZM108.133 39.6055C107.738 39.6055 107.404 39.7505 107.132 40.0405C106.862 40.3306 106.698 40.7202 106.639 41.2095H109.491V41.1523C109.477 40.6953 109.346 40.3232 109.1 40.0361C108.854 39.749 108.532 39.6055 108.133 39.6055ZM110.564 37.6016H111.078L113.75 44.5493H113.236L110.564 37.6016ZM119.243 42.0049C119.17 42.6787 118.928 43.1943 118.518 43.5518C118.111 43.9092 117.567 44.0879 116.887 44.0879C116.413 44.0879 115.992 43.9692 115.626 43.7319C115.263 43.4946 114.982 43.1592 114.782 42.7256C114.583 42.2891 114.482 41.791 114.479 41.2314V40.4009C114.479 39.8325 114.579 39.3286 114.778 38.8892C114.977 38.4497 115.263 38.1113 115.635 37.874C116.01 37.6338 116.441 37.5137 116.927 37.5137C117.613 37.5137 118.153 37.6997 118.549 38.0718C118.947 38.4409 119.178 38.9521 119.243 39.6055H118.698C118.563 38.5186 117.973 37.9751 116.927 37.9751C116.347 37.9751 115.884 38.1919 115.538 38.6255C115.196 39.0591 115.024 39.6582 115.024 40.4229V41.2051C115.024 41.9434 115.191 42.5322 115.525 42.9717C115.862 43.4111 116.316 43.6309 116.887 43.6309C117.453 43.6309 117.879 43.4961 118.166 43.2266C118.453 42.9541 118.631 42.5469 118.698 42.0049H119.243ZM120.144 41.5522C120.144 41.0952 120.232 40.6836 120.407 40.3174C120.586 39.9512 120.837 39.667 121.159 39.4648C121.484 39.2598 121.852 39.1572 122.262 39.1572C122.895 39.1572 123.407 39.3799 123.8 39.8252C124.193 40.2676 124.389 40.855 124.389 41.5874V41.6973C124.389 42.1572 124.3 42.5718 124.121 42.9409C123.945 43.3071 123.696 43.5898 123.374 43.7891C123.051 43.9883 122.684 44.0879 122.271 44.0879C121.641 44.0879 121.128 43.8667 120.733 43.4243C120.34 42.979 120.144 42.3901 120.144 41.6577V41.5522ZM120.671 41.6973C120.671 42.2656 120.818 42.7329 121.111 43.0991C121.406 43.4624 121.793 43.644 122.271 43.644C122.745 43.644 123.129 43.4624 123.422 43.0991C123.718 42.7329 123.866 42.251 123.866 41.6533V41.5522C123.866 41.189 123.799 40.8564 123.664 40.5547C123.529 40.2529 123.34 40.02 123.097 39.856C122.854 39.689 122.575 39.6055 122.262 39.6055C121.793 39.6055 121.411 39.79 121.115 40.1592C120.819 40.5254 120.671 41.0059 120.671 41.6006V41.6973ZM125.98 39.2451L125.997 40.0581C126.176 39.7651 126.399 39.5425 126.665 39.3901C126.932 39.2349 127.226 39.1572 127.549 39.1572C128.058 39.1572 128.438 39.3008 128.687 39.5879C128.936 39.875 129.062 40.3057 129.065 40.8799V44H128.542V40.8755C128.539 40.4507 128.448 40.1343 128.269 39.9263C128.093 39.7183 127.811 39.6143 127.421 39.6143C127.096 39.6143 126.807 39.7168 126.555 39.9219C126.306 40.124 126.122 40.3979 126.002 40.7437V44H125.479V39.2451H125.98ZM131.244 38.0278V39.2451H132.229V39.6758H131.244V42.8442C131.244 43.1079 131.291 43.3042 131.385 43.4331C131.482 43.562 131.641 43.6265 131.864 43.6265C131.952 43.6265 132.094 43.6118 132.29 43.5825L132.312 44.0132C132.175 44.063 131.987 44.0879 131.75 44.0879C131.389 44.0879 131.127 43.9839 130.963 43.7759C130.799 43.5649 130.717 43.2559 130.717 42.8486V39.6758H129.842V39.2451H130.717V38.0278H131.244ZM135.16 44.0879C134.756 44.0879 134.389 43.9883 134.061 43.7891C133.736 43.5898 133.483 43.313 133.301 42.9585C133.119 42.6011 133.029 42.2012 133.029 41.7588V41.5698C133.029 41.1128 133.116 40.7012 133.292 40.335C133.471 39.9688 133.718 39.6816 134.035 39.4736C134.351 39.2627 134.694 39.1572 135.063 39.1572C135.64 39.1572 136.097 39.355 136.434 39.7505C136.774 40.1431 136.944 40.6807 136.944 41.3633V41.6577H133.551V41.7588C133.551 42.2979 133.705 42.7476 134.013 43.1079C134.323 43.4653 134.713 43.644 135.182 43.644C135.463 43.644 135.711 43.5928 135.925 43.4902C136.141 43.3877 136.338 43.2236 136.513 42.998L136.843 43.2485C136.456 43.8081 135.895 44.0879 135.16 44.0879ZM135.063 39.6055C134.668 39.6055 134.334 39.7505 134.061 40.0405C133.792 40.3306 133.628 40.7202 133.569 41.2095H136.421V41.1523C136.406 40.6953 136.276 40.3232 136.03 40.0361C135.784 39.749 135.462 39.6055 135.063 39.6055ZM138.469 39.2451L138.487 40.0581C138.665 39.7651 138.888 39.5425 139.154 39.3901C139.421 39.2349 139.716 39.1572 140.038 39.1572C140.548 39.1572 140.927 39.3008 141.176 39.5879C141.425 39.875 141.551 40.3057 141.554 40.8799V44H141.031V40.8755C141.028 40.4507 140.937 40.1343 140.758 39.9263C140.583 39.7183 140.3 39.6143 139.91 39.6143C139.585 39.6143 139.297 39.7168 139.045 39.9219C138.796 40.124 138.611 40.3979 138.491 40.7437V44H137.968V39.2451H138.469ZM143.734 38.0278V39.2451H144.718V39.6758H143.734V42.8442C143.734 43.1079 143.78 43.3042 143.874 43.4331C143.971 43.562 144.131 43.6265 144.353 43.6265C144.441 43.6265 144.583 43.6118 144.779 43.5825L144.801 44.0132C144.664 44.063 144.476 44.0879 144.239 44.0879C143.879 44.0879 143.616 43.9839 143.452 43.7759C143.288 43.5649 143.206 43.2559 143.206 42.8486V39.6758H142.332V39.2451H143.206V38.0278H143.734ZM145.333 37.6016H145.847L148.519 44.5493H148.005L145.333 37.6016ZM150.022 41.394V44H149.482V37.6016H151.661C152.326 37.6016 152.851 37.7715 153.235 38.1113C153.621 38.4512 153.815 38.9185 153.815 39.5132C153.815 40.1138 153.629 40.5781 153.257 40.9062C152.887 41.2314 152.351 41.394 151.648 41.394H150.022ZM150.022 40.937H151.661C152.186 40.937 152.586 40.8125 152.861 40.5635C153.136 40.3145 153.274 39.9673 153.274 39.522C153.274 39.0796 153.136 38.728 152.861 38.4673C152.589 38.2036 152.2 38.0688 151.696 38.063H150.022V40.937ZM157.853 44C157.8 43.8506 157.767 43.6294 157.752 43.3364C157.568 43.5767 157.332 43.7627 157.045 43.8945C156.76 44.0234 156.459 44.0879 156.139 44.0879C155.682 44.0879 155.312 43.9604 155.028 43.7056C154.746 43.4507 154.606 43.1284 154.606 42.7388C154.606 42.2759 154.798 41.9097 155.181 41.6401C155.568 41.3706 156.106 41.2358 156.794 41.2358H157.748V40.6953C157.748 40.3555 157.642 40.0889 157.431 39.8955C157.223 39.6992 156.919 39.6011 156.517 39.6011C156.151 39.6011 155.848 39.6948 155.608 39.8823C155.367 40.0698 155.247 40.2954 155.247 40.5591L154.72 40.5547C154.72 40.1768 154.896 39.8501 155.247 39.5747C155.599 39.2964 156.031 39.1572 156.544 39.1572C157.074 39.1572 157.491 39.2905 157.796 39.5571C158.104 39.8208 158.262 40.1899 158.271 40.6646V42.9146C158.271 43.3745 158.319 43.7188 158.416 43.9473V44H157.853ZM156.201 43.6221C156.552 43.6221 156.866 43.5371 157.141 43.3672C157.42 43.1973 157.622 42.9702 157.748 42.686V41.6401H156.807C156.283 41.646 155.873 41.7427 155.577 41.9302C155.281 42.1147 155.133 42.3696 155.133 42.6948C155.133 42.9614 155.231 43.1826 155.427 43.3584C155.627 43.5342 155.884 43.6221 156.201 43.6221ZM160.806 41.605L160.204 42.1851V44H159.677V37.25H160.204V41.5698L160.701 41.0337L162.52 39.2451H163.184L161.167 41.249L163.36 44H162.731L160.806 41.605ZM166.937 42.7915C166.937 42.5308 166.831 42.3213 166.62 42.1631C166.412 42.0049 166.097 41.8818 165.675 41.7939C165.254 41.7031 164.925 41.6006 164.691 41.4863C164.46 41.3691 164.287 41.2271 164.173 41.0601C164.061 40.8931 164.006 40.6909 164.006 40.4536C164.006 40.0786 164.162 39.7695 164.476 39.5264C164.789 39.2803 165.191 39.1572 165.68 39.1572C166.21 39.1572 166.635 39.2891 166.954 39.5527C167.277 39.8135 167.438 40.1548 167.438 40.5767H166.91C166.91 40.2983 166.793 40.0669 166.559 39.8823C166.327 39.6978 166.034 39.6055 165.68 39.6055C165.334 39.6055 165.056 39.6831 164.845 39.8384C164.637 39.9907 164.533 40.1899 164.533 40.436C164.533 40.6733 164.619 40.8579 164.792 40.9897C164.968 41.1187 165.286 41.2373 165.746 41.3457C166.209 41.4541 166.554 41.5698 166.783 41.6929C167.014 41.8159 167.186 41.9639 167.297 42.1367C167.408 42.3096 167.464 42.519 167.464 42.7651C167.464 43.1665 167.301 43.4873 166.976 43.7275C166.654 43.9678 166.232 44.0879 165.711 44.0879C165.157 44.0879 164.707 43.9546 164.362 43.688C164.019 43.4185 163.847 43.0786 163.847 42.6685H164.375C164.395 42.9761 164.524 43.2163 164.761 43.3892C165.002 43.5591 165.318 43.644 165.711 43.644C166.077 43.644 166.373 43.5635 166.598 43.4023C166.824 43.2412 166.937 43.0376 166.937 42.7915Z" fill="white"/>
<rect x="7.5" y="13.5" width="210" height="16" rx="1.5" fill="#262630" stroke="#23232D"/>
<path d="M16.333 22.0117H13.3491V25H12.8086V18.6016H16.7725V19.063H13.3491V21.5503H16.333V22.0117ZM17.3613 22.5522C17.3613 22.0952 17.4492 21.6836 17.625 21.3174C17.8037 20.9512 18.0542 20.667 18.3765 20.4648C18.7017 20.2598 19.0693 20.1572 19.4795 20.1572C20.1123 20.1572 20.625 20.3799 21.0176 20.8252C21.4102 21.2676 21.6064 21.855 21.6064 22.5874V22.6973C21.6064 23.1572 21.5171 23.5718 21.3384 23.9409C21.1626 24.3071 20.9136 24.5898 20.5913 24.7891C20.269 24.9883 19.9014 25.0879 19.4883 25.0879C18.8584 25.0879 18.3457 24.8667 17.9502 24.4243C17.5576 23.979 17.3613 23.3901 17.3613 22.6577V22.5522ZM17.8887 22.6973C17.8887 23.2656 18.0352 23.7329 18.3281 24.0991C18.624 24.4624 19.0107 24.644 19.4883 24.644C19.9629 24.644 20.3467 24.4624 20.6396 24.0991C20.9355 23.7329 21.0835 23.251 21.0835 22.6533V22.5522C21.0835 22.189 21.0161 21.8564 20.8813 21.5547C20.7466 21.2529 20.5576 21.02 20.3145 20.856C20.0713 20.689 19.793 20.6055 19.4795 20.6055C19.0107 20.6055 18.6284 20.79 18.3325 21.1592C18.0366 21.5254 17.8887 22.0059 17.8887 22.6006V22.6973ZM24.8936 20.6934C24.7822 20.6729 24.6636 20.6626 24.5376 20.6626C24.2095 20.6626 23.9312 20.7549 23.7026 20.9395C23.4771 21.1211 23.3159 21.3862 23.2192 21.7349V25H22.6963V20.2451H23.2104L23.2192 21.001C23.4976 20.4385 23.9443 20.1572 24.5596 20.1572C24.7061 20.1572 24.8218 20.1763 24.9067 20.2144L24.8936 20.6934ZM26.7656 19.0278V20.2451H27.75V20.6758H26.7656V23.8442C26.7656 24.1079 26.8125 24.3042 26.9062 24.4331C27.0029 24.562 27.1626 24.6265 27.3853 24.6265C27.4731 24.6265 27.6152 24.6118 27.8115 24.5825L27.8335 25.0132C27.6958 25.063 27.5083 25.0879 27.271 25.0879C26.9106 25.0879 26.6484 24.9839 26.4844 24.7759C26.3203 24.5649 26.2383 24.2559 26.2383 23.8486V20.6758H25.3638V20.2451H26.2383V19.0278H26.7656ZM29.3408 20.2451L29.3584 21.0581C29.5371 20.7651 29.7598 20.5425 30.0264 20.3901C30.293 20.2349 30.5874 20.1572 30.9097 20.1572C31.4194 20.1572 31.7988 20.3008 32.0479 20.5879C32.2969 20.875 32.4229 21.3057 32.4258 21.8799V25H31.9028V21.8755C31.8999 21.4507 31.8091 21.1343 31.6304 20.9263C31.4546 20.7183 31.1719 20.6143 30.7822 20.6143C30.457 20.6143 30.1685 20.7168 29.9165 20.9219C29.6675 21.124 29.4829 21.3979 29.3628 21.7437V25H28.8398V20.2451H29.3408ZM34.377 25H33.8496V20.2451H34.377V25ZM33.7573 18.8696C33.7573 18.77 33.7896 18.6865 33.854 18.6191C33.9185 18.5488 34.0063 18.5137 34.1177 18.5137C34.229 18.5137 34.3169 18.5488 34.3813 18.6191C34.4487 18.6865 34.4824 18.77 34.4824 18.8696C34.4824 18.9692 34.4487 19.0527 34.3813 19.1201C34.3169 19.1875 34.229 19.2212 34.1177 19.2212C34.0063 19.2212 33.9185 19.1875 33.854 19.1201C33.7896 19.0527 33.7573 18.9692 33.7573 18.8696ZM36.627 19.0278V20.2451H37.6113V20.6758H36.627V23.8442C36.627 24.1079 36.6738 24.3042 36.7676 24.4331C36.8643 24.562 37.0239 24.6265 37.2466 24.6265C37.3345 24.6265 37.4766 24.6118 37.6729 24.5825L37.6948 25.0132C37.5571 25.063 37.3696 25.0879 37.1323 25.0879C36.772 25.0879 36.5098 24.9839 36.3457 24.7759C36.1816 24.5649 36.0996 24.2559 36.0996 23.8486V20.6758H35.2251V20.2451H36.0996V19.0278H36.627ZM40.5425 25.0879C40.1382 25.0879 39.772 24.9883 39.4438 24.7891C39.1187 24.5898 38.8652 24.313 38.6836 23.9585C38.502 23.6011 38.4111 23.2012 38.4111 22.7588V22.5698C38.4111 22.1128 38.499 21.7012 38.6748 21.335C38.8535 20.9688 39.1011 20.6816 39.4175 20.4736C39.7339 20.2627 40.0767 20.1572 40.4458 20.1572C41.0229 20.1572 41.48 20.355 41.8169 20.7505C42.1567 21.1431 42.3267 21.6807 42.3267 22.3633V22.6577H38.9341V22.7588C38.9341 23.2979 39.0879 23.7476 39.3955 24.1079C39.7061 24.4653 40.0957 24.644 40.5645 24.644C40.8457 24.644 41.0933 24.5928 41.3071 24.4902C41.5239 24.3877 41.7202 24.2236 41.896 23.998L42.2256 24.2485C41.8389 24.8081 41.2778 25.0879 40.5425 25.0879ZM40.4458 20.6055C40.0503 20.6055 39.7163 20.7505 39.4438 21.0405C39.1743 21.3306 39.0103 21.7202 38.9517 22.2095H41.8037V22.1523C41.7891 21.6953 41.6587 21.3232 41.4126 21.0361C41.1665 20.749 40.8442 20.6055 40.4458 20.6055ZM45.4688 22.416C45.4688 21.7773 45.5508 21.1577 45.7148 20.5571C45.8789 19.9536 46.1191 19.4028 46.4355 18.9048C46.752 18.4038 47.0918 18.0449 47.4551 17.8281L47.5825 18.1841C47.3892 18.3218 47.1973 18.5225 47.0068 18.7861C46.8164 19.0498 46.6465 19.3633 46.4971 19.7266C46.3477 20.0898 46.2261 20.4985 46.1323 20.9526C46.0415 21.4038 45.9961 21.9165 45.9961 22.4907C45.9961 23.103 46.0649 23.6919 46.2026 24.2573C46.3433 24.8228 46.5352 25.3208 46.7783 25.7515C47.0215 26.1851 47.2896 26.5103 47.5825 26.7271L47.4551 27.0654C47.083 26.8428 46.7388 26.4824 46.4224 25.9844C46.106 25.4893 45.8672 24.9443 45.7061 24.3496C45.5479 23.752 45.4688 23.1074 45.4688 22.416ZM50.4829 21.3086L52.2847 18.6016H52.9307L50.8125 21.7568L52.9966 25H52.3462L50.4829 22.2051L48.6108 25H47.9692L50.1577 21.7568L48.0352 18.6016H48.6812L50.4829 21.3086ZM55.9937 21.3086L57.7954 18.6016H58.4414L56.3232 21.7568L58.5073 25H57.8569L55.9937 22.2051L54.1216 25H53.48L55.6685 21.7568L53.5459 18.6016H54.1919L55.9937 21.3086ZM59.3862 24.6836C59.3862 24.5811 59.4185 24.4946 59.4829 24.4243C59.5503 24.3511 59.6426 24.3145 59.7598 24.3145C59.877 24.3145 59.9692 24.3511 60.0366 24.4243C60.104 24.4946 60.1377 24.5811 60.1377 24.6836C60.1377 24.7861 60.104 24.8711 60.0366 24.9385C59.9692 25.0029 59.877 25.0352 59.7598 25.0352C59.6426 25.0352 59.5503 25.0029 59.4829 24.9385C59.4185 24.8711 59.3862 24.7861 59.3862 24.6836ZM63.6577 21.3086L65.4595 18.6016H66.1055L63.9873 21.7568L66.1714 25H65.521L63.6577 22.2051L61.7856 25H61.144L63.3325 21.7568L61.21 18.6016H61.856L63.6577 21.3086ZM69.1685 21.3086L70.9702 18.6016H71.6162L69.498 21.7568L71.6821 25H71.0317L69.1685 22.2051L67.2964 25H66.6548L68.8433 21.7568L66.7207 18.6016H67.3667L69.1685 21.3086ZM74.042 22.3984H71.937V21.9546H74.042V22.3984ZM79.6362 23.0049C79.563 23.6787 79.3213 24.1943 78.9111 24.5518C78.5039 24.9092 77.9604 25.0879 77.2808 25.0879C76.8062 25.0879 76.3857 24.9692 76.0195 24.7319C75.6562 24.4946 75.375 24.1592 75.1758 23.7256C74.9766 23.2891 74.8755 22.791 74.8726 22.2314V21.4009C74.8726 20.8325 74.9722 20.3286 75.1714 19.8892C75.3706 19.4497 75.6562 19.1113 76.0283 18.874C76.4033 18.6338 76.834 18.5137 77.3203 18.5137C78.0059 18.5137 78.5464 18.6997 78.9419 19.0718C79.3403 19.4409 79.5718 19.9521 79.6362 20.6055H79.0913C78.9565 19.5186 78.3662 18.9751 77.3203 18.9751C76.7402 18.9751 76.2773 19.1919 75.9316 19.6255C75.5889 20.0591 75.4175 20.6582 75.4175 21.4229V22.2051C75.4175 22.9434 75.5845 23.5322 75.9185 23.9717C76.2554 24.4111 76.7095 24.6309 77.2808 24.6309C77.8462 24.6309 78.2725 24.4961 78.5596 24.2266C78.8467 23.9541 79.0239 23.5469 79.0913 23.0049H79.6362ZM81.4951 24.543H84.6548V25H80.9502V18.6016H81.4951V24.543ZM87.208 22.3984H85.103V21.9546H87.208V22.3984ZM90.2183 21.3086L92.02 18.6016H92.666L90.5479 21.7568L92.7319 25H92.0815L90.2183 22.2051L88.3462 25H87.7046L89.8931 21.7568L87.7705 18.6016H88.4165L90.2183 21.3086ZM95.729 21.3086L97.5308 18.6016H98.1768L96.0586 21.7568L98.2427 25H97.5923L95.729 22.2051L93.8569 25H93.2153L95.4038 21.7568L93.2812 18.6016H93.9272L95.729 21.3086ZM101.24 21.3086L103.042 18.6016H103.688L101.569 21.7568L103.753 25H103.103L101.24 22.2051L99.3677 25H98.7261L100.915 21.7568L98.792 18.6016H99.438L101.24 21.3086ZM106.75 21.3086L108.552 18.6016H109.198L107.08 21.7568L109.264 25H108.614L106.75 22.2051L104.878 25H104.237L106.425 21.7568L104.303 18.6016H104.949L106.75 21.3086ZM112.261 21.3086L114.063 18.6016H114.709L112.591 21.7568L114.775 25H114.125L112.261 22.2051L110.389 25H109.748L111.936 21.7568L109.813 18.6016H110.459L112.261 21.3086ZM117.772 21.3086L119.574 18.6016H120.22L118.102 21.7568L120.286 25H119.635L117.772 22.2051L115.9 25H115.258L117.447 21.7568L115.324 18.6016H115.97L117.772 21.3086ZM123.283 21.3086L125.084 18.6016H125.73L123.612 21.7568L125.796 25H125.146L123.283 22.2051L121.411 25H120.769L122.958 21.7568L120.835 18.6016H121.481L123.283 21.3086ZM128.793 21.3086L130.595 18.6016H131.241L129.123 21.7568L131.307 25H130.657L128.793 22.2051L126.921 25H126.28L128.468 21.7568L126.346 18.6016H126.992L128.793 21.3086ZM133.667 22.3984H131.562V21.9546H133.667V22.3984ZM135.913 23.2729L136.11 24.2661L136.352 23.3169L137.741 18.6016H138.229L139.6 23.3169L139.837 24.2749L140.048 23.2729L141.204 18.6016H141.757L140.118 25H139.6L138.149 19.9946L137.987 19.3618L137.829 19.9946L136.343 25H135.825L134.19 18.6016H134.744L135.913 23.2729ZM143.265 25H142.737V20.2451H143.265V25ZM142.645 18.8696C142.645 18.77 142.677 18.6865 142.742 18.6191C142.806 18.5488 142.894 18.5137 143.005 18.5137C143.117 18.5137 143.205 18.5488 143.269 18.6191C143.336 18.6865 143.37 18.77 143.37 18.8696C143.37 18.9692 143.336 19.0527 143.269 19.1201C143.205 19.1875 143.117 19.2212 143.005 19.2212C142.894 19.2212 142.806 19.1875 142.742 19.1201C142.677 19.0527 142.645 18.9692 142.645 18.8696ZM145.198 20.2451L145.216 21.0581C145.395 20.7651 145.617 20.5425 145.884 20.3901C146.15 20.2349 146.445 20.1572 146.767 20.1572C147.277 20.1572 147.656 20.3008 147.905 20.5879C148.154 20.875 148.28 21.3057 148.283 21.8799V25H147.76V21.8755C147.757 21.4507 147.667 21.1343 147.488 20.9263C147.312 20.7183 147.029 20.6143 146.64 20.6143C146.314 20.6143 146.026 20.7168 145.774 20.9219C145.525 21.124 145.34 21.3979 145.22 21.7437V25H144.697V20.2451H145.198ZM149.435 22.5786C149.435 21.8403 149.599 21.2529 149.927 20.8164C150.258 20.377 150.706 20.1572 151.271 20.1572C151.913 20.1572 152.402 20.4106 152.739 20.9175V18.25H153.262V25H152.77L152.748 24.3672C152.411 24.8477 151.916 25.0879 151.263 25.0879C150.715 25.0879 150.272 24.8682 149.936 24.4287C149.602 23.9863 149.435 23.3901 149.435 22.6401V22.5786ZM149.966 22.6709C149.966 23.2773 150.088 23.7563 150.331 24.1079C150.574 24.4565 150.917 24.6309 151.359 24.6309C152.007 24.6309 152.467 24.3452 152.739 23.7739V21.5415C152.467 20.9233 152.01 20.6143 151.368 20.6143C150.926 20.6143 150.582 20.7886 150.335 21.1372C150.089 21.4829 149.966 21.9941 149.966 22.6709ZM154.356 22.5522C154.356 22.0952 154.444 21.6836 154.62 21.3174C154.799 20.9512 155.049 20.667 155.372 20.4648C155.697 20.2598 156.064 20.1572 156.475 20.1572C157.107 20.1572 157.62 20.3799 158.013 20.8252C158.405 21.2676 158.602 21.855 158.602 22.5874V22.6973C158.602 23.1572 158.512 23.5718 158.333 23.9409C158.158 24.3071 157.909 24.5898 157.586 24.7891C157.264 24.9883 156.896 25.0879 156.483 25.0879C155.854 25.0879 155.341 24.8667 154.945 24.4243C154.553 23.979 154.356 23.3901 154.356 22.6577V22.5522ZM154.884 22.6973C154.884 23.2656 155.03 23.7329 155.323 24.0991C155.619 24.4624 156.006 24.644 156.483 24.644C156.958 24.644 157.342 24.4624 157.635 24.0991C157.931 23.7329 158.079 23.251 158.079 22.6533V22.5522C158.079 22.189 158.011 21.8564 157.876 21.5547C157.742 21.2529 157.553 21.02 157.31 20.856C157.066 20.689 156.788 20.6055 156.475 20.6055C156.006 20.6055 155.624 20.79 155.328 21.1592C155.032 21.5254 154.884 22.0059 154.884 22.6006V22.6973ZM160.83 23.9058L160.909 24.3145L161.014 23.8838L162.157 20.2451H162.605L163.734 23.853L163.857 24.354L163.958 23.8926L164.934 20.2451H165.479L164.095 25H163.646L162.425 21.2295L162.368 20.9702L162.311 21.2339L161.111 25H160.663L159.283 20.2451H159.823L160.83 23.9058ZM169.324 23.7915C169.324 23.5308 169.219 23.3213 169.008 23.1631C168.8 23.0049 168.485 22.8818 168.063 22.7939C167.641 22.7031 167.313 22.6006 167.079 22.4863C166.847 22.3691 166.674 22.2271 166.56 22.0601C166.449 21.8931 166.393 21.6909 166.393 21.4536C166.393 21.0786 166.55 20.7695 166.863 20.5264C167.177 20.2803 167.578 20.1572 168.067 20.1572C168.598 20.1572 169.022 20.2891 169.342 20.5527C169.664 20.8135 169.825 21.1548 169.825 21.5767H169.298C169.298 21.2983 169.181 21.0669 168.946 20.8823C168.715 20.6978 168.422 20.6055 168.067 20.6055C167.722 20.6055 167.443 20.6831 167.232 20.8384C167.024 20.9907 166.92 21.1899 166.92 21.436C166.92 21.6733 167.007 21.8579 167.18 21.9897C167.355 22.1187 167.673 22.2373 168.133 22.3457C168.596 22.4541 168.942 22.5698 169.17 22.6929C169.402 22.8159 169.573 22.9639 169.685 23.1367C169.796 23.3096 169.852 23.519 169.852 23.7651C169.852 24.1665 169.689 24.4873 169.364 24.7275C169.042 24.9678 168.62 25.0879 168.098 25.0879C167.544 25.0879 167.095 24.9546 166.749 24.688C166.406 24.4185 166.235 24.0786 166.235 23.6685H166.762C166.783 23.9761 166.912 24.2163 167.149 24.3892C167.389 24.5591 167.706 24.644 168.098 24.644C168.464 24.644 168.76 24.5635 168.986 24.4023C169.211 24.2412 169.324 24.0376 169.324 23.7915ZM172.611 22.4819C172.611 23.1265 172.531 23.7476 172.37 24.3452C172.211 24.9399 171.976 25.4849 171.662 25.98C171.349 26.4751 171.003 26.8369 170.625 27.0654L170.498 26.7271C170.785 26.522 171.05 26.2041 171.293 25.7734C171.539 25.3428 171.732 24.8418 171.873 24.2705C172.014 23.6963 172.084 23.0737 172.084 22.4028C172.084 21.7964 172.014 21.2119 171.873 20.6494C171.732 20.084 171.538 19.5801 171.289 19.1377C171.042 18.6924 170.779 18.3687 170.498 18.1665L170.625 17.8281C170.994 18.0537 171.335 18.4141 171.649 18.9092C171.962 19.4043 172.201 19.9536 172.365 20.5571C172.529 21.1606 172.611 21.8022 172.611 22.4819Z" fill="white"/>
<path d="M208.165 21.7447L209.608 22.8726C209.825 23.0425 210.176 23.0425 210.393 22.8726L211.836 21.7447C212.187 21.4703 211.936 21 211.441 21H208.555C208.059 21 207.814 21.4703 208.165 21.7447Z" fill="white"/>
<rect x="7.5" y="13.5" width="210" height="16" rx="1.5" stroke="#5767F2"/>
<line x1="7.5" y1="10.5" x2="7.5" y2="6.5" stroke="#5767F2" stroke-linecap="round" stroke-dasharray="3 3"/>
<line x1="0.5" y1="13.5" x2="4.5" y2="13.5" stroke="#5767F2" stroke-linecap="round" stroke-dasharray="3 3"/>
<line x1="0.5" y1="29.5" x2="4.5" y2="29.5" stroke="#5767F2" stroke-linecap="round" stroke-dasharray="3 3"/>
<line x1="217.5" y1="10.5" x2="217.5" y2="6.5" stroke="#5767F2" stroke-linecap="round" stroke-dasharray="3 3"/>
<line x1="220.5" y1="13.5" x2="224.5" y2="13.5" stroke="#5767F2" stroke-linecap="round" stroke-dasharray="3 3"/>
<line x1="220.5" y1="29.5" x2="224.5" y2="29.5" stroke="#5767F2" stroke-linecap="round" stroke-dasharray="3 3"/>
<path d="M67.2627 7.20703H64.3579L63.6987 9H63.1318L65.5532 2.60156H66.0674L68.4888 9H67.9263L67.2627 7.20703ZM64.5249 6.74561H67.0913L65.8081 3.26074L64.5249 6.74561ZM72.3164 8.39795C72 8.85791 71.4946 9.08789 70.8003 9.08789C70.2935 9.08789 69.9082 8.94141 69.6445 8.64844C69.3809 8.35254 69.2461 7.91602 69.2402 7.33887V4.24512H69.7632V7.27295C69.7632 8.17822 70.1294 8.63086 70.8618 8.63086C71.6235 8.63086 72.1055 8.31592 72.3076 7.68604V4.24512H72.835V9H72.3252L72.3164 8.39795ZM75.0234 3.02783V4.24512H76.0078V4.67578H75.0234V7.84424C75.0234 8.10791 75.0703 8.3042 75.1641 8.43311C75.2607 8.56201 75.4204 8.62646 75.6431 8.62646C75.731 8.62646 75.873 8.61182 76.0693 8.58252L76.0913 9.01318C75.9536 9.06299 75.7661 9.08789 75.5288 9.08789C75.1685 9.08789 74.9062 8.98389 74.7422 8.77588C74.5781 8.56494 74.4961 8.25586 74.4961 7.84863V4.67578H73.6216V4.24512H74.4961V3.02783H75.0234ZM76.7197 6.55225C76.7197 6.09521 76.8076 5.68359 76.9834 5.31738C77.1621 4.95117 77.4126 4.66699 77.7349 4.46484C78.0601 4.25977 78.4277 4.15723 78.8379 4.15723C79.4707 4.15723 79.9834 4.37988 80.376 4.8252C80.7686 5.26758 80.9648 5.85498 80.9648 6.5874V6.69727C80.9648 7.15723 80.8755 7.57178 80.6968 7.94092C80.521 8.30713 80.272 8.58984 79.9497 8.78906C79.6274 8.98828 79.2598 9.08789 78.8467 9.08789C78.2168 9.08789 77.7041 8.8667 77.3086 8.42432C76.916 7.979 76.7197 7.39014 76.7197 6.65771V6.55225ZM77.2471 6.69727C77.2471 7.26562 77.3936 7.73291 77.6865 8.09912C77.9824 8.4624 78.3691 8.64404 78.8467 8.64404C79.3213 8.64404 79.7051 8.4624 79.998 8.09912C80.2939 7.73291 80.4419 7.25098 80.4419 6.65332V6.55225C80.4419 6.18896 80.3745 5.85645 80.2397 5.55469C80.105 5.25293 79.916 5.02002 79.6729 4.85596C79.4297 4.68896 79.1514 4.60547 78.8379 4.60547C78.3691 4.60547 77.9868 4.79004 77.6909 5.15918C77.395 5.52539 77.2471 6.00586 77.2471 6.60059V6.69727ZM83.6895 6.39844H81.5845V5.95459H83.6895V6.39844ZM84.7529 9V2.60156H86.5415C87.0659 2.60156 87.5361 2.72168 87.9521 2.96191C88.3682 3.19922 88.6919 3.54053 88.9233 3.98584C89.1577 4.43115 89.2749 4.93799 89.2749 5.50635V6.09521C89.2749 6.6665 89.1592 7.17334 88.9277 7.61572C88.6963 8.05811 88.3696 8.39941 87.9478 8.63965C87.5288 8.87988 87.0469 9 86.502 9H84.7529ZM85.2935 3.06299V8.54297H86.5063C87.1802 8.54297 87.7207 8.32031 88.1279 7.875C88.5352 7.42676 88.7388 6.82178 88.7388 6.06006V5.49756C88.7388 4.76221 88.5381 4.17334 88.1367 3.73096C87.7354 3.28857 87.2065 3.06592 86.5503 3.06299H85.2935ZM92.3687 9.08789C91.9644 9.08789 91.5981 8.98828 91.27 8.78906C90.9448 8.58984 90.6914 8.31299 90.5098 7.9585C90.3281 7.60107 90.2373 7.20117 90.2373 6.75879V6.56982C90.2373 6.11279 90.3252 5.70117 90.501 5.33496C90.6797 4.96875 90.9272 4.68164 91.2437 4.47363C91.5601 4.2627 91.9028 4.15723 92.272 4.15723C92.8491 4.15723 93.3062 4.35498 93.6431 4.75049C93.9829 5.14307 94.1528 5.68066 94.1528 6.36328V6.65771H90.7603V6.75879C90.7603 7.29785 90.9141 7.74756 91.2217 8.10791C91.5322 8.46533 91.9219 8.64404 92.3906 8.64404C92.6719 8.64404 92.9194 8.59277 93.1333 8.49023C93.3501 8.3877 93.5464 8.22363 93.7222 7.99805L94.0518 8.24854C93.665 8.80811 93.104 9.08789 92.3687 9.08789ZM92.272 4.60547C91.8765 4.60547 91.5425 4.75049 91.27 5.04053C91.0005 5.33057 90.8364 5.72021 90.7778 6.20947H93.6299V6.15234C93.6152 5.69531 93.4849 5.32324 93.2388 5.03613C92.9927 4.74902 92.6704 4.60547 92.272 4.60547ZM95.9941 3.02783V4.24512H96.9785V4.67578H95.9941V7.84424C95.9941 8.10791 96.041 8.3042 96.1348 8.43311C96.2314 8.56201 96.3911 8.62646 96.6138 8.62646C96.7017 8.62646 96.8438 8.61182 97.04 8.58252L97.062 9.01318C96.9243 9.06299 96.7368 9.08789 96.4995 9.08789C96.1392 9.08789 95.877 8.98389 95.7129 8.77588C95.5488 8.56494 95.4668 8.25586 95.4668 7.84863V4.67578H94.5923V4.24512H95.4668V3.02783H95.9941ZM99.9097 9.08789C99.5054 9.08789 99.1392 8.98828 98.811 8.78906C98.4858 8.58984 98.2324 8.31299 98.0508 7.9585C97.8691 7.60107 97.7783 7.20117 97.7783 6.75879V6.56982C97.7783 6.11279 97.8662 5.70117 98.042 5.33496C98.2207 4.96875 98.4683 4.68164 98.7847 4.47363C99.1011 4.2627 99.4438 4.15723 99.813 4.15723C100.39 4.15723 100.847 4.35498 101.184 4.75049C101.524 5.14307 101.694 5.68066 101.694 6.36328V6.65771H98.3013V6.75879C98.3013 7.29785 98.4551 7.74756 98.7627 8.10791C99.0732 8.46533 99.4629 8.64404 99.9316 8.64404C100.213 8.64404 100.46 8.59277 100.674 8.49023C100.891 8.3877 101.087 8.22363 101.263 7.99805L101.593 8.24854C101.206 8.80811 100.645 9.08789 99.9097 9.08789ZM99.813 4.60547C99.4175 4.60547 99.0835 4.75049 98.811 5.04053C98.5415 5.33057 98.3774 5.72021 98.3188 6.20947H101.171V6.15234C101.156 5.69531 101.026 5.32324 100.78 5.03613C100.534 4.74902 100.211 4.60547 99.813 4.60547ZM104.476 8.64404C104.842 8.64404 105.148 8.5415 105.394 8.33643C105.643 8.12842 105.778 7.86035 105.798 7.53223H106.304C106.289 7.82227 106.198 8.0874 106.031 8.32764C105.864 8.56494 105.642 8.75098 105.363 8.88574C105.088 9.02051 104.792 9.08789 104.476 9.08789C103.852 9.08789 103.356 8.87109 102.99 8.4375C102.627 8.00391 102.445 7.4209 102.445 6.68848V6.53027C102.445 6.06152 102.527 5.64697 102.691 5.28662C102.855 4.92627 103.09 4.64795 103.395 4.45166C103.702 4.25537 104.061 4.15723 104.471 4.15723C104.993 4.15723 105.422 4.3125 105.759 4.62305C106.099 4.93359 106.28 5.34229 106.304 5.84912H105.798C105.775 5.47705 105.64 5.17676 105.394 4.94824C105.151 4.71973 104.843 4.60547 104.471 4.60547C103.997 4.60547 103.627 4.77686 103.364 5.11963C103.103 5.4624 102.973 5.94287 102.973 6.56104V6.71484C102.973 7.32129 103.103 7.79443 103.364 8.13428C103.627 8.47412 103.998 8.64404 104.476 8.64404ZM108.176 3.02783V4.24512H109.16V4.67578H108.176V7.84424C108.176 8.10791 108.223 8.3042 108.316 8.43311C108.413 8.56201 108.573 8.62646 108.795 8.62646C108.883 8.62646 109.025 8.61182 109.222 8.58252L109.244 9.01318C109.106 9.06299 108.918 9.08789 108.681 9.08789C108.321 9.08789 108.059 8.98389 107.895 8.77588C107.73 8.56494 107.648 8.25586 107.648 7.84863V4.67578H106.774V4.24512H107.648V3.02783H108.176ZM112.091 9.08789C111.687 9.08789 111.321 8.98828 110.993 8.78906C110.667 8.58984 110.414 8.31299 110.232 7.9585C110.051 7.60107 109.96 7.20117 109.96 6.75879V6.56982C109.96 6.11279 110.048 5.70117 110.224 5.33496C110.402 4.96875 110.65 4.68164 110.966 4.47363C111.283 4.2627 111.625 4.15723 111.995 4.15723C112.572 4.15723 113.029 4.35498 113.366 4.75049C113.706 5.14307 113.875 5.68066 113.875 6.36328V6.65771H110.483V6.75879C110.483 7.29785 110.637 7.74756 110.944 8.10791C111.255 8.46533 111.645 8.64404 112.113 8.64404C112.395 8.64404 112.642 8.59277 112.856 8.49023C113.073 8.3877 113.269 8.22363 113.445 7.99805L113.774 8.24854C113.388 8.80811 112.827 9.08789 112.091 9.08789ZM111.995 4.60547C111.599 4.60547 111.265 4.75049 110.993 5.04053C110.723 5.33057 110.559 5.72021 110.5 6.20947H113.353V6.15234C113.338 5.69531 113.208 5.32324 112.961 5.03613C112.715 4.74902 112.393 4.60547 111.995 4.60547ZM114.688 6.57861C114.688 5.84033 114.853 5.25293 115.181 4.81641C115.512 4.37695 115.96 4.15723 116.525 4.15723C117.167 4.15723 117.656 4.41064 117.993 4.91748V2.25H118.516V9H118.024L118.002 8.36719C117.665 8.84766 117.17 9.08789 116.517 9.08789C115.969 9.08789 115.526 8.86816 115.189 8.42871C114.855 7.98633 114.688 7.39014 114.688 6.64014V6.57861ZM115.22 6.6709C115.22 7.27734 115.342 7.75635 115.585 8.10791C115.828 8.45654 116.171 8.63086 116.613 8.63086C117.261 8.63086 117.721 8.34521 117.993 7.77393V5.5415C117.721 4.92334 117.264 4.61426 116.622 4.61426C116.18 4.61426 115.835 4.78857 115.589 5.13721C115.343 5.48291 115.22 5.99414 115.22 6.6709ZM126.831 8.23975C126.643 8.50635 126.349 8.71436 125.947 8.86377C125.549 9.01318 125.102 9.08789 124.607 9.08789C124.106 9.08789 123.661 8.96777 123.271 8.72754C122.881 8.4873 122.58 8.14746 122.366 7.70801C122.152 7.26855 122.043 6.76465 122.041 6.19629V5.3877C122.041 4.5 122.265 3.7998 122.713 3.28711C123.161 2.77148 123.763 2.51367 124.519 2.51367C125.178 2.51367 125.708 2.68213 126.11 3.01904C126.511 3.35303 126.75 3.81445 126.826 4.40332H126.286C126.207 3.93457 126.015 3.58008 125.71 3.33984C125.408 3.09668 125.013 2.9751 124.523 2.9751C123.926 2.9751 123.453 3.1875 123.104 3.6123C122.755 4.03711 122.581 4.63623 122.581 5.40967V6.16553C122.581 6.65186 122.663 7.08252 122.827 7.45752C122.994 7.82959 123.231 8.11816 123.539 8.32324C123.85 8.52832 124.206 8.63086 124.607 8.63086C125.073 8.63086 125.473 8.55762 125.807 8.41113C126.023 8.31445 126.185 8.20166 126.29 8.07275V6.42041H124.572V5.96338H126.831V8.23975ZM131.243 9C131.19 8.85059 131.156 8.62939 131.142 8.33643C130.957 8.57666 130.721 8.7627 130.434 8.89453C130.15 9.02344 129.848 9.08789 129.529 9.08789C129.072 9.08789 128.701 8.96045 128.417 8.70557C128.136 8.45068 127.995 8.12842 127.995 7.73877C127.995 7.27588 128.187 6.90967 128.571 6.64014C128.958 6.37061 129.495 6.23584 130.184 6.23584H131.137V5.69531C131.137 5.35547 131.032 5.08887 130.821 4.89551C130.613 4.69922 130.308 4.60107 129.907 4.60107C129.541 4.60107 129.237 4.69482 128.997 4.88232C128.757 5.06982 128.637 5.29541 128.637 5.55908L128.109 5.55469C128.109 5.17676 128.285 4.8501 128.637 4.57471C128.988 4.29639 129.42 4.15723 129.933 4.15723C130.463 4.15723 130.881 4.29053 131.186 4.55713C131.493 4.8208 131.651 5.18994 131.66 5.66455V7.91455C131.66 8.37451 131.708 8.71875 131.805 8.94727V9H131.243ZM129.59 8.62207C129.942 8.62207 130.255 8.53711 130.531 8.36719C130.809 8.19727 131.011 7.97021 131.137 7.68604V6.64014H130.197C129.672 6.646 129.262 6.74268 128.966 6.93018C128.67 7.11475 128.522 7.36963 128.522 7.69482C128.522 7.96143 128.621 8.18262 128.817 8.3584C129.016 8.53418 129.274 8.62207 129.59 8.62207ZM133.545 4.24512L133.563 5.01855C133.739 4.73145 133.958 4.51611 134.222 4.37256C134.486 4.229 134.779 4.15723 135.101 4.15723C135.851 4.15723 136.327 4.46484 136.529 5.08008C136.699 4.78418 136.926 4.55713 137.21 4.39893C137.495 4.23779 137.808 4.15723 138.151 4.15723C139.17 4.15723 139.69 4.71387 139.711 5.82715V9H139.184V5.8667C139.181 5.44189 139.088 5.12695 138.907 4.92188C138.728 4.7168 138.435 4.61426 138.028 4.61426C137.65 4.62012 137.331 4.74316 137.07 4.9834C136.809 5.2207 136.664 5.51074 136.635 5.85352V9H136.107V5.82715C136.104 5.41992 136.008 5.1167 135.817 4.91748C135.63 4.71533 135.34 4.61426 134.947 4.61426C134.616 4.61426 134.332 4.70947 134.095 4.8999C133.857 5.0874 133.682 5.36719 133.567 5.73926V9H133.04V4.24512H133.545ZM142.888 9.08789C142.484 9.08789 142.118 8.98828 141.79 8.78906C141.464 8.58984 141.211 8.31299 141.029 7.9585C140.848 7.60107 140.757 7.20117 140.757 6.75879V6.56982C140.757 6.11279 140.845 5.70117 141.021 5.33496C141.199 4.96875 141.447 4.68164 141.763 4.47363C142.08 4.2627 142.422 4.15723 142.792 4.15723C143.369 4.15723 143.826 4.35498 144.163 4.75049C144.502 5.14307 144.672 5.68066 144.672 6.36328V6.65771H141.28V6.75879C141.28 7.29785 141.434 7.74756 141.741 8.10791C142.052 8.46533 142.441 8.64404 142.91 8.64404C143.191 8.64404 143.439 8.59277 143.653 8.49023C143.87 8.3877 144.066 8.22363 144.242 7.99805L144.571 8.24854C144.185 8.80811 143.624 9.08789 142.888 9.08789ZM142.792 4.60547C142.396 4.60547 142.062 4.75049 141.79 5.04053C141.52 5.33057 141.356 5.72021 141.297 6.20947H144.149V6.15234C144.135 5.69531 144.004 5.32324 143.758 5.03613C143.512 4.74902 143.19 4.60547 142.792 4.60547ZM148.553 8.54297H151.712V9H148.008V2.60156H148.553V8.54297ZM153.22 9H152.692V4.24512H153.22V9ZM152.6 2.86963C152.6 2.77002 152.632 2.68652 152.697 2.61914C152.761 2.54883 152.849 2.51367 152.96 2.51367C153.072 2.51367 153.16 2.54883 153.224 2.61914C153.292 2.68652 153.325 2.77002 153.325 2.86963C153.325 2.96924 153.292 3.05273 153.224 3.12012C153.16 3.1875 153.072 3.22119 152.96 3.22119C152.849 3.22119 152.761 3.1875 152.697 3.12012C152.632 3.05273 152.6 2.96924 152.6 2.86963ZM157.5 7.7915C157.5 7.53076 157.395 7.32129 157.184 7.16309C156.976 7.00488 156.661 6.88184 156.239 6.79395C155.817 6.70312 155.489 6.60059 155.254 6.48633C155.023 6.36914 154.85 6.22705 154.736 6.06006C154.625 5.89307 154.569 5.69092 154.569 5.45361C154.569 5.07861 154.726 4.76953 155.039 4.52637C155.353 4.28027 155.754 4.15723 156.243 4.15723C156.773 4.15723 157.198 4.28906 157.518 4.55273C157.84 4.81348 158.001 5.15479 158.001 5.57666H157.474C157.474 5.29834 157.356 5.06689 157.122 4.88232C156.891 4.69775 156.598 4.60547 156.243 4.60547C155.897 4.60547 155.619 4.68311 155.408 4.83838C155.2 4.99072 155.096 5.18994 155.096 5.43604C155.096 5.67334 155.183 5.85791 155.355 5.98975C155.531 6.11865 155.849 6.2373 156.309 6.3457C156.772 6.4541 157.118 6.56982 157.346 6.69287C157.578 6.81592 157.749 6.96387 157.86 7.13672C157.972 7.30957 158.027 7.51904 158.027 7.76514C158.027 8.1665 157.865 8.4873 157.54 8.72754C157.217 8.96777 156.795 9.08789 156.274 9.08789C155.72 9.08789 155.271 8.95459 154.925 8.68799C154.582 8.41846 154.411 8.07861 154.411 7.66846H154.938C154.958 7.97607 155.087 8.21631 155.325 8.38916C155.565 8.55908 155.881 8.64404 156.274 8.64404C156.64 8.64404 156.936 8.56348 157.162 8.40234C157.387 8.24121 157.5 8.0376 157.5 7.7915ZM160.031 3.02783V4.24512H161.016V4.67578H160.031V7.84424C160.031 8.10791 160.078 8.3042 160.172 8.43311C160.269 8.56201 160.428 8.62646 160.651 8.62646C160.739 8.62646 160.881 8.61182 161.077 8.58252L161.099 9.01318C160.961 9.06299 160.774 9.08789 160.537 9.08789C160.176 9.08789 159.914 8.98389 159.75 8.77588C159.586 8.56494 159.504 8.25586 159.504 7.84863V4.67578H158.629V4.24512H159.504V3.02783H160.031Z" fill="#5767F2"/>
<rect x="7.5" y="32.5" width="190" height="16" rx="1.5" stroke="#F2C757"/>
<line x1="7.5" y1="55.5" x2="7.5" y2="51.5" stroke="#F2C757" stroke-linecap="round" stroke-dasharray="3 3"/>
<line x1="0.5" y1="32.5" x2="4.5" y2="32.5" stroke="#F2C757" stroke-linecap="round" stroke-dasharray="3 3"/>
<line x1="0.5" y1="48.5" x2="4.5" y2="48.5" stroke="#F2C757" stroke-linecap="round" stroke-dasharray="3 3"/>
<line x1="197.5" y1="55.5" x2="197.5" y2="51.5" stroke="#F2C757" stroke-linecap="round" stroke-dasharray="3 3"/>
<path d="M58.4297 58.4268C58.4297 58.0723 58.3052 57.7925 58.0562 57.5874C57.8071 57.3794 57.3516 57.1831 56.6895 56.9985C56.0273 56.811 55.5439 56.6074 55.2393 56.3877C54.8057 56.0771 54.5889 55.6699 54.5889 55.166C54.5889 54.6768 54.7896 54.2798 55.1909 53.9751C55.5952 53.6675 56.1108 53.5137 56.7378 53.5137C57.1626 53.5137 57.542 53.5957 57.876 53.7598C58.2129 53.9238 58.4736 54.1523 58.6582 54.4453C58.8428 54.7383 58.9351 55.0649 58.9351 55.4253H58.3901C58.3901 54.9888 58.2407 54.6387 57.9419 54.375C57.6431 54.1084 57.2417 53.9751 56.7378 53.9751C56.2485 53.9751 55.8589 54.085 55.5688 54.3047C55.2788 54.5215 55.1338 54.8057 55.1338 55.1572C55.1338 55.4824 55.2642 55.7476 55.5249 55.9526C55.7856 56.1577 56.2031 56.3394 56.7773 56.4976C57.3516 56.6528 57.7866 56.8154 58.0825 56.9854C58.3784 57.1523 58.6011 57.353 58.7505 57.5874C58.8999 57.8218 58.9746 58.0986 58.9746 58.418C58.9746 58.9219 58.7725 59.3262 58.3682 59.6309C57.9668 59.9355 57.4365 60.0879 56.7773 60.0879C56.3262 60.0879 55.9116 60.0073 55.5337 59.8462C55.1587 59.6851 54.873 59.4595 54.6768 59.1694C54.4834 58.8794 54.3867 58.5469 54.3867 58.1719H54.9272C54.9272 58.623 55.0957 58.979 55.4326 59.2397C55.7695 59.5005 56.2178 59.6309 56.7773 59.6309C57.2754 59.6309 57.6753 59.521 57.9771 59.3013C58.2788 59.0815 58.4297 58.79 58.4297 58.4268ZM61.8618 60.0879C61.4575 60.0879 61.0913 59.9883 60.7632 59.7891C60.438 59.5898 60.1846 59.313 60.0029 58.9585C59.8213 58.6011 59.7305 58.2012 59.7305 57.7588V57.5698C59.7305 57.1128 59.8184 56.7012 59.9941 56.335C60.1729 55.9688 60.4204 55.6816 60.7368 55.4736C61.0532 55.2627 61.396 55.1572 61.7651 55.1572C62.3423 55.1572 62.7993 55.355 63.1362 55.7505C63.4761 56.1431 63.646 56.6807 63.646 57.3633V57.6577H60.2534V57.7588C60.2534 58.2979 60.4072 58.7476 60.7148 59.1079C61.0254 59.4653 61.415 59.644 61.8838 59.644C62.165 59.644 62.4126 59.5928 62.6265 59.4902C62.8433 59.3877 63.0396 59.2236 63.2153 58.998L63.5449 59.2485C63.1582 59.8081 62.5972 60.0879 61.8618 60.0879ZM61.7651 55.6055C61.3696 55.6055 61.0356 55.7505 60.7632 56.0405C60.4937 56.3306 60.3296 56.7202 60.271 57.2095H63.123V57.1523C63.1084 56.6953 62.978 56.3232 62.7319 56.0361C62.4858 55.749 62.1636 55.6055 61.7651 55.6055ZM65.2588 60H64.7314V53.25H65.2588V60ZM68.5327 60.0879C68.1284 60.0879 67.7622 59.9883 67.4341 59.7891C67.1089 59.5898 66.8555 59.313 66.6738 58.9585C66.4922 58.6011 66.4014 58.2012 66.4014 57.7588V57.5698C66.4014 57.1128 66.4893 56.7012 66.665 56.335C66.8438 55.9688 67.0913 55.6816 67.4077 55.4736C67.7241 55.2627 68.0669 55.1572 68.436 55.1572C69.0132 55.1572 69.4702 55.355 69.8071 55.7505C70.147 56.1431 70.3169 56.6807 70.3169 57.3633V57.6577H66.9243V57.7588C66.9243 58.2979 67.0781 58.7476 67.3857 59.1079C67.6963 59.4653 68.0859 59.644 68.5547 59.644C68.8359 59.644 69.0835 59.5928 69.2974 59.4902C69.5142 59.3877 69.7104 59.2236 69.8862 58.998L70.2158 59.2485C69.8291 59.8081 69.2681 60.0879 68.5327 60.0879ZM68.436 55.6055C68.0405 55.6055 67.7065 55.7505 67.4341 56.0405C67.1646 56.3306 67.0005 56.7202 66.9419 57.2095H69.7939V57.1523C69.7793 56.6953 69.6489 56.3232 69.4028 56.0361C69.1567 55.749 68.8345 55.6055 68.436 55.6055ZM73.0986 59.644C73.4648 59.644 73.771 59.5415 74.0171 59.3364C74.2661 59.1284 74.4009 58.8604 74.4214 58.5322H74.9268C74.9121 58.8223 74.8213 59.0874 74.6543 59.3276C74.4873 59.5649 74.2646 59.751 73.9863 59.8857C73.7109 60.0205 73.415 60.0879 73.0986 60.0879C72.4746 60.0879 71.9795 59.8711 71.6133 59.4375C71.25 59.0039 71.0684 58.4209 71.0684 57.6885V57.5303C71.0684 57.0615 71.1504 56.647 71.3145 56.2866C71.4785 55.9263 71.7129 55.6479 72.0176 55.4517C72.3252 55.2554 72.6841 55.1572 73.0942 55.1572C73.6157 55.1572 74.0449 55.3125 74.3818 55.623C74.7217 55.9336 74.9033 56.3423 74.9268 56.8491H74.4214C74.3979 56.4771 74.2632 56.1768 74.0171 55.9482C73.7739 55.7197 73.4663 55.6055 73.0942 55.6055C72.6196 55.6055 72.2505 55.7769 71.9868 56.1196C71.7261 56.4624 71.5957 56.9429 71.5957 57.561V57.7148C71.5957 58.3213 71.7261 58.7944 71.9868 59.1343C72.2505 59.4741 72.6211 59.644 73.0986 59.644ZM76.7988 54.0278V55.2451H77.7832V55.6758H76.7988V58.8442C76.7988 59.1079 76.8457 59.3042 76.9395 59.4331C77.0361 59.562 77.1958 59.6265 77.4185 59.6265C77.5063 59.6265 77.6484 59.6118 77.8447 59.5825L77.8667 60.0132C77.729 60.063 77.5415 60.0879 77.3042 60.0879C76.9438 60.0879 76.6816 59.9839 76.5176 59.7759C76.3535 59.5649 76.2715 59.2559 76.2715 58.8486V55.6758H75.397V55.2451H76.2715V54.0278H76.7988ZM80.7144 60.0879C80.3101 60.0879 79.9438 59.9883 79.6157 59.7891C79.2905 59.5898 79.0371 59.313 78.8555 58.9585C78.6738 58.6011 78.583 58.2012 78.583 57.7588V57.5698C78.583 57.1128 78.6709 56.7012 78.8467 56.335C79.0254 55.9688 79.2729 55.6816 79.5894 55.4736C79.9058 55.2627 80.2485 55.1572 80.6177 55.1572C81.1948 55.1572 81.6519 55.355 81.9888 55.7505C82.3286 56.1431 82.4985 56.6807 82.4985 57.3633V57.6577H79.106V57.7588C79.106 58.2979 79.2598 58.7476 79.5674 59.1079C79.8779 59.4653 80.2676 59.644 80.7363 59.644C81.0176 59.644 81.2651 59.5928 81.479 59.4902C81.6958 59.3877 81.8921 59.2236 82.0679 58.998L82.3975 59.2485C82.0107 59.8081 81.4497 60.0879 80.7144 60.0879ZM80.6177 55.6055C80.2222 55.6055 79.8882 55.7505 79.6157 56.0405C79.3462 56.3306 79.1821 56.7202 79.1235 57.2095H81.9756V57.1523C81.9609 56.6953 81.8306 56.3232 81.5845 56.0361C81.3384 55.749 81.0161 55.6055 80.6177 55.6055ZM83.3115 57.5786C83.3115 56.8403 83.4756 56.2529 83.8037 55.8164C84.1348 55.377 84.583 55.1572 85.1484 55.1572C85.79 55.1572 86.2793 55.4106 86.6162 55.9175V53.25H87.1392V60H86.647L86.625 59.3672C86.2881 59.8477 85.793 60.0879 85.1396 60.0879C84.5918 60.0879 84.1494 59.8682 83.8125 59.4287C83.4785 58.9863 83.3115 58.3901 83.3115 57.6401V57.5786ZM83.8433 57.6709C83.8433 58.2773 83.9648 58.7563 84.208 59.1079C84.4512 59.4565 84.7939 59.6309 85.2363 59.6309C85.8838 59.6309 86.3438 59.3452 86.6162 58.7739V56.5415C86.3438 55.9233 85.8867 55.6143 85.2451 55.6143C84.8027 55.6143 84.4585 55.7886 84.2124 56.1372C83.9663 56.4829 83.8433 56.9941 83.8433 57.6709ZM95.4536 59.2397C95.2661 59.5063 94.9717 59.7144 94.5703 59.8638C94.1719 60.0132 93.7251 60.0879 93.23 60.0879C92.729 60.0879 92.2837 59.9678 91.894 59.7275C91.5044 59.4873 91.2026 59.1475 90.9888 58.708C90.7749 58.2686 90.6665 57.7646 90.6636 57.1963V56.3877C90.6636 55.5 90.8877 54.7998 91.3359 54.2871C91.7842 53.7715 92.3862 53.5137 93.1421 53.5137C93.8013 53.5137 94.3315 53.6821 94.7329 54.019C95.1343 54.353 95.373 54.8145 95.4492 55.4033H94.9087C94.8296 54.9346 94.6377 54.5801 94.333 54.3398C94.0312 54.0967 93.6357 53.9751 93.1465 53.9751C92.5488 53.9751 92.0757 54.1875 91.7271 54.6123C91.3784 55.0371 91.2041 55.6362 91.2041 56.4097V57.1655C91.2041 57.6519 91.2861 58.0825 91.4502 58.4575C91.6172 58.8296 91.8545 59.1182 92.1621 59.3232C92.4727 59.5283 92.8286 59.6309 93.23 59.6309C93.6958 59.6309 94.0957 59.5576 94.4297 59.4111C94.6465 59.3145 94.8076 59.2017 94.9131 59.0728V57.4204H93.1948V56.9634H95.4536V59.2397ZM99.8657 60C99.813 59.8506 99.7793 59.6294 99.7646 59.3364C99.5801 59.5767 99.3442 59.7627 99.0571 59.8945C98.7729 60.0234 98.4712 60.0879 98.1519 60.0879C97.6948 60.0879 97.3242 59.9604 97.04 59.7056C96.7588 59.4507 96.6182 59.1284 96.6182 58.7388C96.6182 58.2759 96.8101 57.9097 97.1938 57.6401C97.5806 57.3706 98.1182 57.2358 98.8066 57.2358H99.7603V56.6953C99.7603 56.3555 99.6548 56.0889 99.4438 55.8955C99.2358 55.6992 98.9312 55.6011 98.5298 55.6011C98.1636 55.6011 97.8604 55.6948 97.6201 55.8823C97.3799 56.0698 97.2598 56.2954 97.2598 56.5591L96.7324 56.5547C96.7324 56.1768 96.9082 55.8501 97.2598 55.5747C97.6113 55.2964 98.0435 55.1572 98.5562 55.1572C99.0864 55.1572 99.5039 55.2905 99.8086 55.5571C100.116 55.8208 100.274 56.1899 100.283 56.6646V58.9146C100.283 59.3745 100.332 59.7188 100.428 59.9473V60H99.8657ZM98.2134 59.6221C98.5649 59.6221 98.8784 59.5371 99.1538 59.3672C99.4321 59.1973 99.6343 58.9702 99.7603 58.686V57.6401H98.8198C98.2954 57.646 97.8853 57.7427 97.5894 57.9302C97.2935 58.1147 97.1455 58.3696 97.1455 58.6948C97.1455 58.9614 97.2437 59.1826 97.4399 59.3584C97.6392 59.5342 97.897 59.6221 98.2134 59.6221ZM102.168 55.2451L102.186 56.0186C102.362 55.7314 102.582 55.5161 102.845 55.3726C103.109 55.229 103.402 55.1572 103.724 55.1572C104.474 55.1572 104.95 55.4648 105.152 56.0801C105.322 55.7842 105.549 55.5571 105.833 55.3989C106.118 55.2378 106.431 55.1572 106.774 55.1572C107.793 55.1572 108.313 55.7139 108.334 56.8271V60H107.807V56.8667C107.804 56.4419 107.711 56.127 107.53 55.9219C107.351 55.7168 107.058 55.6143 106.651 55.6143C106.273 55.6201 105.954 55.7432 105.693 55.9834C105.432 56.2207 105.287 56.5107 105.258 56.8535V60H104.73V56.8271C104.728 56.4199 104.631 56.1167 104.44 55.9175C104.253 55.7153 103.963 55.6143 103.57 55.6143C103.239 55.6143 102.955 55.7095 102.718 55.8999C102.48 56.0874 102.305 56.3672 102.19 56.7393V60H101.663V55.2451H102.168ZM111.511 60.0879C111.107 60.0879 110.741 59.9883 110.413 59.7891C110.087 59.5898 109.834 59.313 109.652 58.9585C109.471 58.6011 109.38 58.2012 109.38 57.7588V57.5698C109.38 57.1128 109.468 56.7012 109.644 56.335C109.822 55.9688 110.07 55.6816 110.386 55.4736C110.703 55.2627 111.045 55.1572 111.415 55.1572C111.992 55.1572 112.449 55.355 112.786 55.7505C113.125 56.1431 113.295 56.6807 113.295 57.3633V57.6577H109.903V57.7588C109.903 58.2979 110.057 58.7476 110.364 59.1079C110.675 59.4653 111.064 59.644 111.533 59.644C111.814 59.644 112.062 59.5928 112.276 59.4902C112.493 59.3877 112.689 59.2236 112.865 58.998L113.194 59.2485C112.808 59.8081 112.247 60.0879 111.511 60.0879ZM111.415 55.6055C111.019 55.6055 110.685 55.7505 110.413 56.0405C110.143 56.3306 109.979 56.7202 109.92 57.2095H112.772V57.1523C112.758 56.6953 112.627 56.3232 112.381 56.0361C112.135 55.749 111.813 55.6055 111.415 55.6055ZM116.631 60V53.6016H118.419C118.944 53.6016 119.414 53.7217 119.83 53.9619C120.246 54.1992 120.57 54.5405 120.801 54.9858C121.036 55.4312 121.153 55.938 121.153 56.5063V57.0952C121.153 57.6665 121.037 58.1733 120.806 58.6157C120.574 59.0581 120.248 59.3994 119.826 59.6396C119.407 59.8799 118.925 60 118.38 60H116.631ZM117.171 54.063V59.543H118.384C119.058 59.543 119.599 59.3203 120.006 58.875C120.413 58.4268 120.617 57.8218 120.617 57.0601V56.4976C120.617 55.7622 120.416 55.1733 120.015 54.731C119.613 54.2886 119.084 54.0659 118.428 54.063H117.171ZM122.994 60H122.467V55.2451H122.994V60ZM122.375 53.8696C122.375 53.77 122.407 53.6865 122.471 53.6191C122.536 53.5488 122.624 53.5137 122.735 53.5137C122.846 53.5137 122.934 53.5488 122.999 53.6191C123.066 53.6865 123.1 53.77 123.1 53.8696C123.1 53.9692 123.066 54.0527 122.999 54.1201C122.934 54.1875 122.846 54.2212 122.735 54.2212C122.624 54.2212 122.536 54.1875 122.471 54.1201C122.407 54.0527 122.375 53.9692 122.375 53.8696ZM126.624 55.6934C126.513 55.6729 126.394 55.6626 126.268 55.6626C125.94 55.6626 125.662 55.7549 125.433 55.9395C125.208 56.1211 125.046 56.3862 124.95 56.7349V60H124.427V55.2451H124.941L124.95 56.001C125.228 55.4385 125.675 55.1572 126.29 55.1572C126.437 55.1572 126.552 55.1763 126.637 55.2144L126.624 55.6934ZM129.212 60.0879C128.808 60.0879 128.442 59.9883 128.114 59.7891C127.789 59.5898 127.535 59.313 127.354 58.9585C127.172 58.6011 127.081 58.2012 127.081 57.7588V57.5698C127.081 57.1128 127.169 56.7012 127.345 56.335C127.523 55.9688 127.771 55.6816 128.087 55.4736C128.404 55.2627 128.747 55.1572 129.116 55.1572C129.693 55.1572 130.15 55.355 130.487 55.7505C130.827 56.1431 130.997 56.6807 130.997 57.3633V57.6577H127.604V57.7588C127.604 58.2979 127.758 58.7476 128.065 59.1079C128.376 59.4653 128.766 59.644 129.234 59.644C129.516 59.644 129.763 59.5928 129.977 59.4902C130.194 59.3877 130.39 59.2236 130.566 58.998L130.896 59.2485C130.509 59.8081 129.948 60.0879 129.212 60.0879ZM129.116 55.6055C128.72 55.6055 128.386 55.7505 128.114 56.0405C127.844 56.3306 127.68 56.7202 127.622 57.2095H130.474V57.1523C130.459 56.6953 130.329 56.3232 130.083 56.0361C129.836 55.749 129.514 55.6055 129.116 55.6055ZM133.778 59.644C134.145 59.644 134.451 59.5415 134.697 59.3364C134.946 59.1284 135.081 58.8604 135.101 58.5322H135.606C135.592 58.8223 135.501 59.0874 135.334 59.3276C135.167 59.5649 134.944 59.751 134.666 59.8857C134.391 60.0205 134.095 60.0879 133.778 60.0879C133.154 60.0879 132.659 59.8711 132.293 59.4375C131.93 59.0039 131.748 58.4209 131.748 57.6885V57.5303C131.748 57.0615 131.83 56.647 131.994 56.2866C132.158 55.9263 132.393 55.6479 132.697 55.4517C133.005 55.2554 133.364 55.1572 133.774 55.1572C134.295 55.1572 134.725 55.3125 135.062 55.623C135.401 55.9336 135.583 56.3423 135.606 56.8491H135.101C135.078 56.4771 134.943 56.1768 134.697 55.9482C134.454 55.7197 134.146 55.6055 133.774 55.6055C133.299 55.6055 132.93 55.7769 132.667 56.1196C132.406 56.4624 132.275 56.9429 132.275 57.561V57.7148C132.275 58.3213 132.406 58.7944 132.667 59.1343C132.93 59.4741 133.301 59.644 133.778 59.644ZM137.479 54.0278V55.2451H138.463V55.6758H137.479V58.8442C137.479 59.1079 137.525 59.3042 137.619 59.4331C137.716 59.562 137.875 59.6265 138.098 59.6265C138.186 59.6265 138.328 59.6118 138.524 59.5825L138.546 60.0132C138.409 60.063 138.221 60.0879 137.984 60.0879C137.624 60.0879 137.361 59.9839 137.197 59.7759C137.033 59.5649 136.951 59.2559 136.951 58.8486V55.6758H136.077V55.2451H136.951V54.0278H137.479ZM139.175 57.5522C139.175 57.0952 139.263 56.6836 139.438 56.3174C139.617 55.9512 139.868 55.667 140.19 55.4648C140.515 55.2598 140.883 55.1572 141.293 55.1572C141.926 55.1572 142.438 55.3799 142.831 55.8252C143.224 56.2676 143.42 56.855 143.42 57.5874V57.6973C143.42 58.1572 143.331 58.5718 143.152 58.9409C142.976 59.3071 142.727 59.5898 142.405 59.7891C142.083 59.9883 141.715 60.0879 141.302 60.0879C140.672 60.0879 140.159 59.8667 139.764 59.4243C139.371 58.979 139.175 58.3901 139.175 57.6577V57.5522ZM139.702 57.6973C139.702 58.2656 139.849 58.7329 140.142 59.0991C140.438 59.4624 140.824 59.644 141.302 59.644C141.776 59.644 142.16 59.4624 142.453 59.0991C142.749 58.7329 142.897 58.251 142.897 57.6533V57.5522C142.897 57.189 142.83 56.8564 142.695 56.5547C142.56 56.2529 142.371 56.02 142.128 55.856C141.885 55.689 141.606 55.6055 141.293 55.6055C140.824 55.6055 140.442 55.79 140.146 56.1592C139.85 56.5254 139.702 57.0059 139.702 57.6006V57.6973ZM146.707 55.6934C146.596 55.6729 146.477 55.6626 146.351 55.6626C146.023 55.6626 145.745 55.7549 145.516 55.9395C145.291 56.1211 145.129 56.3862 145.033 56.7349V60H144.51V55.2451H145.024L145.033 56.001C145.311 55.4385 145.758 55.1572 146.373 55.1572C146.52 55.1572 146.635 55.1763 146.72 55.2144L146.707 55.6934ZM149.128 59.2441L150.517 55.2451H151.084L149.054 60.8086L148.948 61.0547C148.688 61.6318 148.285 61.9204 147.74 61.9204C147.614 61.9204 147.479 61.8999 147.335 61.8589L147.331 61.4238L147.604 61.4502C147.861 61.4502 148.069 61.3857 148.228 61.2568C148.389 61.1309 148.525 60.9126 148.636 60.6021L148.869 59.9604L147.076 55.2451H147.652L149.128 59.2441Z" fill="#F2C757"/>
<rect x="201.5" y="32.5" width="16" height="16" rx="1.5" stroke="#F25757"/>
<line x1="217.5" y1="55.5" x2="217.5" y2="51.5" stroke="#F25757" stroke-linecap="round" stroke-dasharray="3 3"/>
<line x1="201.5" y1="55.5" x2="201.5" y2="51.5" stroke="#F25757" stroke-linecap="round" stroke-dasharray="3 3"/>
<line x1="220.5" y1="32.5" x2="224.5" y2="32.5" stroke="#F25757" stroke-linecap="round" stroke-dasharray="3 3"/>
<line x1="220.5" y1="48.5" x2="224.5" y2="48.5" stroke="#F25757" stroke-linecap="round" stroke-dasharray="3 3"/>
<path d="M236.847 26.6016L239.207 32.2485L241.576 26.6016H242.296V33H241.756V30.2139L241.8 27.3574L239.418 33H239L236.627 27.3794L236.671 30.1963V33H236.131V26.6016H236.847ZM246.796 33C246.744 32.8506 246.71 32.6294 246.695 32.3364C246.511 32.5767 246.275 32.7627 245.988 32.8945C245.704 33.0234 245.402 33.0879 245.083 33.0879C244.625 33.0879 244.255 32.9604 243.971 32.7056C243.689 32.4507 243.549 32.1284 243.549 31.7388C243.549 31.2759 243.741 30.9097 244.125 30.6401C244.511 30.3706 245.049 30.2358 245.737 30.2358H246.691V29.6953C246.691 29.3555 246.585 29.0889 246.375 28.8955C246.167 28.6992 245.862 28.6011 245.46 28.6011C245.094 28.6011 244.791 28.6948 244.551 28.8823C244.311 29.0698 244.19 29.2954 244.19 29.5591L243.663 29.5547C243.663 29.1768 243.839 28.8501 244.19 28.5747C244.542 28.2964 244.974 28.1572 245.487 28.1572C246.017 28.1572 246.435 28.2905 246.739 28.5571C247.047 28.8208 247.205 29.1899 247.214 29.6646V31.9146C247.214 32.3745 247.262 32.7188 247.359 32.9473V33H246.796ZM245.144 32.6221C245.496 32.6221 245.809 32.5371 246.084 32.3672C246.363 32.1973 246.565 31.9702 246.691 31.686V30.6401H245.75C245.226 30.646 244.816 30.7427 244.52 30.9302C244.224 31.1147 244.076 31.3696 244.076 31.6948C244.076 31.9614 244.174 32.1826 244.371 32.3584C244.57 32.5342 244.828 32.6221 245.144 32.6221ZM249.121 28.2451L249.139 29.0581C249.317 28.7651 249.54 28.5425 249.807 28.3901C250.073 28.2349 250.368 28.1572 250.69 28.1572C251.2 28.1572 251.579 28.3008 251.828 28.5879C252.077 28.875 252.203 29.3057 252.206 29.8799V33H251.683V29.8755C251.68 29.4507 251.589 29.1343 251.411 28.9263C251.235 28.7183 250.952 28.6143 250.562 28.6143C250.237 28.6143 249.949 28.7168 249.697 28.9219C249.448 29.124 249.263 29.3979 249.143 29.7437V33H248.62V28.2451H249.121ZM256.627 32.3979C256.311 32.8579 255.805 33.0879 255.111 33.0879C254.604 33.0879 254.219 32.9414 253.955 32.6484C253.691 32.3525 253.557 31.916 253.551 31.3389V28.2451H254.074V31.2729C254.074 32.1782 254.44 32.6309 255.172 32.6309C255.934 32.6309 256.416 32.3159 256.618 31.686V28.2451H257.146V33H256.636L256.627 32.3979ZM261.518 33C261.465 32.8506 261.432 32.6294 261.417 32.3364C261.232 32.5767 260.997 32.7627 260.709 32.8945C260.425 33.0234 260.124 33.0879 259.804 33.0879C259.347 33.0879 258.977 32.9604 258.692 32.7056C258.411 32.4507 258.271 32.1284 258.271 31.7388C258.271 31.2759 258.462 30.9097 258.846 30.6401C259.233 30.3706 259.771 30.2358 260.459 30.2358H261.413V29.6953C261.413 29.3555 261.307 29.0889 261.096 28.8955C260.888 28.6992 260.583 28.6011 260.182 28.6011C259.816 28.6011 259.513 28.6948 259.272 28.8823C259.032 29.0698 258.912 29.2954 258.912 29.5591L258.385 29.5547C258.385 29.1768 258.561 28.8501 258.912 28.5747C259.264 28.2964 259.696 28.1572 260.208 28.1572C260.739 28.1572 261.156 28.2905 261.461 28.5571C261.769 28.8208 261.927 29.1899 261.936 29.6646V31.9146C261.936 32.3745 261.984 32.7188 262.081 32.9473V33H261.518ZM259.866 32.6221C260.217 32.6221 260.531 32.5371 260.806 32.3672C261.084 32.1973 261.287 31.9702 261.413 31.686V30.6401H260.472C259.948 30.646 259.538 30.7427 259.242 30.9302C258.946 31.1147 258.798 31.3696 258.798 31.6948C258.798 31.9614 258.896 32.1826 259.092 32.3584C259.292 32.5342 259.549 32.6221 259.866 32.6221ZM263.931 33H263.403V26.25H263.931V33ZM233.112 44V37.6016H234.9C235.425 37.6016 235.895 37.7217 236.311 37.9619C236.727 38.1992 237.051 38.5405 237.282 38.9858C237.517 39.4312 237.634 39.938 237.634 40.5063V41.0952C237.634 41.6665 237.518 42.1733 237.287 42.6157C237.055 43.0581 236.729 43.3994 236.307 43.6396C235.888 43.8799 235.406 44 234.861 44H233.112ZM233.652 38.063V43.543H234.865C235.539 43.543 236.08 43.3203 236.487 42.875C236.894 42.4268 237.098 41.8218 237.098 41.0601V40.4976C237.098 39.7622 236.897 39.1733 236.496 38.731C236.094 38.2886 235.565 38.0659 234.909 38.063H233.652ZM239.475 44H238.948V39.2451H239.475V44ZM238.855 37.8696C238.855 37.77 238.888 37.6865 238.952 37.6191C239.017 37.5488 239.104 37.5137 239.216 37.5137C239.327 37.5137 239.415 37.5488 239.479 37.6191C239.547 37.6865 239.581 37.77 239.581 37.8696C239.581 37.9692 239.547 38.0527 239.479 38.1201C239.415 38.1875 239.327 38.2212 239.216 38.2212C239.104 38.2212 239.017 38.1875 238.952 38.1201C238.888 38.0527 238.855 37.9692 238.855 37.8696ZM243.105 39.6934C242.994 39.6729 242.875 39.6626 242.749 39.6626C242.421 39.6626 242.143 39.7549 241.914 39.9395C241.688 40.1211 241.527 40.3862 241.431 40.7349V44H240.908V39.2451H241.422L241.431 40.001C241.709 39.4385 242.156 39.1572 242.771 39.1572C242.917 39.1572 243.033 39.1763 243.118 39.2144L243.105 39.6934ZM245.693 44.0879C245.289 44.0879 244.923 43.9883 244.595 43.7891C244.27 43.5898 244.016 43.313 243.834 42.9585C243.653 42.6011 243.562 42.2012 243.562 41.7588V41.5698C243.562 41.1128 243.65 40.7012 243.826 40.335C244.004 39.9688 244.252 39.6816 244.568 39.4736C244.885 39.2627 245.228 39.1572 245.597 39.1572C246.174 39.1572 246.631 39.355 246.968 39.7505C247.308 40.1431 247.478 40.6807 247.478 41.3633V41.6577H244.085V41.7588C244.085 42.2979 244.239 42.7476 244.546 43.1079C244.857 43.4653 245.247 43.644 245.715 43.644C245.997 43.644 246.244 43.5928 246.458 43.4902C246.675 43.3877 246.871 43.2236 247.047 42.998L247.376 43.2485C246.99 43.8081 246.429 44.0879 245.693 44.0879ZM245.597 39.6055C245.201 39.6055 244.867 39.7505 244.595 40.0405C244.325 40.3306 244.161 40.7202 244.103 41.2095H246.955V41.1523C246.94 40.6953 246.81 40.3232 246.563 40.0361C246.317 39.749 245.995 39.6055 245.597 39.6055ZM250.259 43.644C250.625 43.644 250.932 43.5415 251.178 43.3364C251.427 43.1284 251.562 42.8604 251.582 42.5322H252.087C252.073 42.8223 251.982 43.0874 251.815 43.3276C251.648 43.5649 251.425 43.751 251.147 43.8857C250.872 44.0205 250.576 44.0879 250.259 44.0879C249.635 44.0879 249.14 43.8711 248.774 43.4375C248.411 43.0039 248.229 42.4209 248.229 41.6885V41.5303C248.229 41.0615 248.311 40.647 248.475 40.2866C248.639 39.9263 248.874 39.6479 249.178 39.4517C249.486 39.2554 249.845 39.1572 250.255 39.1572C250.776 39.1572 251.206 39.3125 251.542 39.623C251.882 39.9336 252.064 40.3423 252.087 40.8491H251.582C251.559 40.4771 251.424 40.1768 251.178 39.9482C250.935 39.7197 250.627 39.6055 250.255 39.6055C249.78 39.6055 249.411 39.7769 249.147 40.1196C248.887 40.4624 248.756 40.9429 248.756 41.561V41.7148C248.756 42.3213 248.887 42.7944 249.147 43.1343C249.411 43.4741 249.782 43.644 250.259 43.644ZM253.959 38.0278V39.2451H254.944V39.6758H253.959V42.8442C253.959 43.1079 254.006 43.3042 254.1 43.4331C254.197 43.562 254.356 43.6265 254.579 43.6265C254.667 43.6265 254.809 43.6118 255.005 43.5825L255.027 44.0132C254.89 44.063 254.702 44.0879 254.465 44.0879C254.104 44.0879 253.842 43.9839 253.678 43.7759C253.514 43.5649 253.432 43.2559 253.432 42.8486V39.6758H252.558V39.2451H253.432V38.0278H253.959ZM255.656 41.5522C255.656 41.0952 255.744 40.6836 255.919 40.3174C256.098 39.9512 256.349 39.667 256.671 39.4648C256.996 39.2598 257.364 39.1572 257.774 39.1572C258.407 39.1572 258.919 39.3799 259.312 39.8252C259.705 40.2676 259.901 40.855 259.901 41.5874V41.6973C259.901 42.1572 259.812 42.5718 259.633 42.9409C259.457 43.3071 259.208 43.5898 258.886 43.7891C258.563 43.9883 258.196 44.0879 257.783 44.0879C257.153 44.0879 256.64 43.8667 256.245 43.4243C255.852 42.979 255.656 42.3901 255.656 41.6577V41.5522ZM256.183 41.6973C256.183 42.2656 256.33 42.7329 256.623 43.0991C256.918 43.4624 257.305 43.644 257.783 43.644C258.257 43.644 258.641 43.4624 258.934 43.0991C259.23 42.7329 259.378 42.251 259.378 41.6533V41.5522C259.378 41.189 259.311 40.8564 259.176 40.5547C259.041 40.2529 258.852 40.02 258.609 39.856C258.366 39.689 258.087 39.6055 257.774 39.6055C257.305 39.6055 256.923 39.79 256.627 40.1592C256.331 40.5254 256.183 41.0059 256.183 41.6006V41.6973ZM263.188 39.6934C263.077 39.6729 262.958 39.6626 262.832 39.6626C262.504 39.6626 262.226 39.7549 261.997 39.9395C261.771 40.1211 261.61 40.3862 261.514 40.7349V44H260.991V39.2451H261.505L261.514 40.001C261.792 39.4385 262.239 39.1572 262.854 39.1572C263 39.1572 263.116 39.1763 263.201 39.2144L263.188 39.6934ZM265.609 43.2441L266.998 39.2451H267.565L265.535 44.8086L265.429 45.0547C265.168 45.6318 264.766 45.9204 264.221 45.9204C264.095 45.9204 263.96 45.8999 263.816 45.8589L263.812 45.4238L264.084 45.4502C264.342 45.4502 264.55 45.3857 264.708 45.2568C264.87 45.1309 265.006 44.9126 265.117 44.6021L265.35 43.9604L263.557 39.2451H264.133L265.609 43.2441ZM238.341 53.4268C238.341 53.0723 238.217 52.7925 237.968 52.5874C237.719 52.3794 237.263 52.1831 236.601 51.9985C235.939 51.811 235.456 51.6074 235.151 51.3877C234.717 51.0771 234.5 50.6699 234.5 50.166C234.5 49.6768 234.701 49.2798 235.103 48.9751C235.507 48.6675 236.022 48.5137 236.649 48.5137C237.074 48.5137 237.454 48.5957 237.788 48.7598C238.125 48.9238 238.385 49.1523 238.57 49.4453C238.754 49.7383 238.847 50.0649 238.847 50.4253H238.302C238.302 49.9888 238.152 49.6387 237.854 49.375C237.555 49.1084 237.153 48.9751 236.649 48.9751C236.16 48.9751 235.771 49.085 235.48 49.3047C235.19 49.5215 235.045 49.8057 235.045 50.1572C235.045 50.4824 235.176 50.7476 235.437 50.9526C235.697 51.1577 236.115 51.3394 236.689 51.4976C237.263 51.6528 237.698 51.8154 237.994 51.9854C238.29 52.1523 238.513 52.353 238.662 52.5874C238.812 52.8218 238.886 53.0986 238.886 53.418C238.886 53.9219 238.684 54.3262 238.28 54.6309C237.878 54.9355 237.348 55.0879 236.689 55.0879C236.238 55.0879 235.823 55.0073 235.445 54.8462C235.07 54.6851 234.785 54.4595 234.588 54.1694C234.395 53.8794 234.298 53.5469 234.298 53.1719H234.839C234.839 53.623 235.007 53.979 235.344 54.2397C235.681 54.5005 236.129 54.6309 236.689 54.6309C237.187 54.6309 237.587 54.521 237.889 54.3013C238.19 54.0815 238.341 53.79 238.341 53.4268ZM241.773 55.0879C241.369 55.0879 241.003 54.9883 240.675 54.7891C240.35 54.5898 240.096 54.313 239.915 53.9585C239.733 53.6011 239.642 53.2012 239.642 52.7588V52.5698C239.642 52.1128 239.73 51.7012 239.906 51.335C240.084 50.9688 240.332 50.6816 240.648 50.4736C240.965 50.2627 241.308 50.1572 241.677 50.1572C242.254 50.1572 242.711 50.355 243.048 50.7505C243.388 51.1431 243.558 51.6807 243.558 52.3633V52.6577H240.165V52.7588C240.165 53.2979 240.319 53.7476 240.626 54.1079C240.937 54.4653 241.327 54.644 241.795 54.644C242.077 54.644 242.324 54.5928 242.538 54.4902C242.755 54.3877 242.951 54.2236 243.127 53.998L243.457 54.2485C243.07 54.8081 242.509 55.0879 241.773 55.0879ZM241.677 50.6055C241.281 50.6055 240.947 50.7505 240.675 51.0405C240.405 51.3306 240.241 51.7202 240.183 52.2095H243.035V52.1523C243.02 51.6953 242.89 51.3232 242.644 51.0361C242.397 50.749 242.075 50.6055 241.677 50.6055ZM245.17 55H244.643V48.25H245.17V55ZM248.444 55.0879C248.04 55.0879 247.674 54.9883 247.346 54.7891C247.021 54.5898 246.767 54.313 246.585 53.9585C246.404 53.6011 246.313 53.2012 246.313 52.7588V52.5698C246.313 52.1128 246.401 51.7012 246.577 51.335C246.755 50.9688 247.003 50.6816 247.319 50.4736C247.636 50.2627 247.979 50.1572 248.348 50.1572C248.925 50.1572 249.382 50.355 249.719 50.7505C250.059 51.1431 250.229 51.6807 250.229 52.3633V52.6577H246.836V52.7588C246.836 53.2979 246.99 53.7476 247.297 54.1079C247.608 54.4653 247.998 54.644 248.466 54.644C248.748 54.644 248.995 54.5928 249.209 54.4902C249.426 54.3877 249.622 54.2236 249.798 53.998L250.127 54.2485C249.741 54.8081 249.18 55.0879 248.444 55.0879ZM248.348 50.6055C247.952 50.6055 247.618 50.7505 247.346 51.0405C247.076 51.3306 246.912 51.7202 246.854 52.2095H249.706V52.1523C249.691 51.6953 249.561 51.3232 249.314 51.0361C249.068 50.749 248.746 50.6055 248.348 50.6055ZM253.01 54.644C253.376 54.644 253.683 54.5415 253.929 54.3364C254.178 54.1284 254.312 53.8604 254.333 53.5322H254.838C254.824 53.8223 254.733 54.0874 254.566 54.3276C254.399 54.5649 254.176 54.751 253.898 54.8857C253.623 55.0205 253.327 55.0879 253.01 55.0879C252.386 55.0879 251.891 54.8711 251.525 54.4375C251.162 54.0039 250.98 53.4209 250.98 52.6885V52.5303C250.98 52.0615 251.062 51.647 251.226 51.2866C251.39 50.9263 251.625 50.6479 251.929 50.4517C252.237 50.2554 252.596 50.1572 253.006 50.1572C253.527 50.1572 253.957 50.3125 254.293 50.623C254.633 50.9336 254.815 51.3423 254.838 51.8491H254.333C254.31 51.4771 254.175 51.1768 253.929 50.9482C253.686 50.7197 253.378 50.6055 253.006 50.6055C252.531 50.6055 252.162 50.7769 251.898 51.1196C251.638 51.4624 251.507 51.9429 251.507 52.561V52.7148C251.507 53.3213 251.638 53.7944 251.898 54.1343C252.162 54.4741 252.533 54.644 253.01 54.644ZM256.71 49.0278V50.2451H257.695V50.6758H256.71V53.8442C256.71 54.1079 256.757 54.3042 256.851 54.4331C256.948 54.562 257.107 54.6265 257.33 54.6265C257.418 54.6265 257.56 54.6118 257.756 54.5825L257.778 55.0132C257.641 55.063 257.453 55.0879 257.216 55.0879C256.855 55.0879 256.593 54.9839 256.429 54.7759C256.265 54.5649 256.183 54.2559 256.183 53.8486V50.6758H255.309V50.2451H256.183V49.0278H256.71ZM258.407 52.5522C258.407 52.0952 258.495 51.6836 258.67 51.3174C258.849 50.9512 259.1 50.667 259.422 50.4648C259.747 50.2598 260.115 50.1572 260.525 50.1572C261.158 50.1572 261.67 50.3799 262.063 50.8252C262.456 51.2676 262.652 51.855 262.652 52.5874V52.6973C262.652 53.1572 262.562 53.5718 262.384 53.9409C262.208 54.3071 261.959 54.5898 261.637 54.7891C261.314 54.9883 260.947 55.0879 260.534 55.0879C259.904 55.0879 259.391 54.8667 258.996 54.4243C258.603 53.979 258.407 53.3901 258.407 52.6577V52.5522ZM258.934 52.6973C258.934 53.2656 259.081 53.7329 259.374 54.0991C259.669 54.4624 260.056 54.644 260.534 54.644C261.008 54.644 261.392 54.4624 261.685 54.0991C261.981 53.7329 262.129 53.251 262.129 52.6533V52.5522C262.129 52.189 262.062 51.8564 261.927 51.5547C261.792 51.2529 261.603 51.02 261.36 50.856C261.117 50.689 260.838 50.6055 260.525 50.6055C260.056 50.6055 259.674 50.79 259.378 51.1592C259.082 51.5254 258.934 52.0059 258.934 52.6006V52.6973ZM265.939 50.6934C265.828 50.6729 265.709 50.6626 265.583 50.6626C265.255 50.6626 264.977 50.7549 264.748 50.9395C264.522 51.1211 264.361 51.3862 264.265 51.7349V55H263.742V50.2451H264.256L264.265 51.001C264.543 50.4385 264.99 50.1572 265.605 50.1572C265.751 50.1572 265.867 50.1763 265.952 50.2144L265.939 50.6934Z" fill="#F25757"/>
</svg>
