<svg id="Capa_1" enable-background="new 0 0 512 512" height="512" viewBox="0 0 512 512" width="512" xmlns="http://www.w3.org/2000/svg"><g><path d="m56.195 160.26h-45.788c-5.748 0-10.407-4.659-10.407-10.406v-45.789c0-5.747 4.659-10.407 10.407-10.407h45.789c5.747 0 10.407 4.659 10.407 10.407v45.789c-.001 5.747-4.661 10.406-10.408 10.406z" fill="#e279b3"/><path d="m501.593 160.26h-372.552c-5.747 0-10.406-4.659-10.406-10.407v-45.789c0-5.747 4.659-10.407 10.406-10.407h372.553c5.747 0 10.407 4.659 10.407 10.407v45.789c-.001 5.748-4.66 10.407-10.408 10.407z" fill="#d3effd"/><path d="m56.195 93.659h-5.724v42.146c0 4.598-3.727 8.325-8.325 8.325h-42.146v5.724c0 5.747 4.659 10.407 10.407 10.407h45.789c5.747 0 10.407-4.659 10.407-10.407v-45.789c-.001-5.747-4.661-10.406-10.408-10.406z" fill="#de5ca3"/><path d="m501.593 93.659h-5.724v42.146c0 4.598-3.727 8.325-8.325 8.325h-368.91v5.724c0 5.747 4.659 10.407 10.406 10.407h372.553c5.747 0 10.407-4.659 10.407-10.407v-45.789c0-5.747-4.659-10.406-10.407-10.406z" fill="#b2e5fb"/><path d="m56.195 289.301h-45.788c-5.748 0-10.407-4.659-10.407-10.407v-45.789c0-5.747 4.659-10.406 10.407-10.406h45.789c5.747 0 10.407 4.659 10.407 10.406v45.789c-.001 5.748-4.661 10.407-10.408 10.407z" fill="#e279b3"/><path d="m501.593 289.301h-372.552c-5.747 0-10.406-4.659-10.406-10.406v-45.789c0-5.747 4.659-10.406 10.406-10.406h372.553c5.747 0 10.407 4.659 10.407 10.406v45.789c-.001 5.747-4.66 10.406-10.408 10.406z" fill="#d3effd"/><path d="m56.195 222.699h-5.724v42.146c0 4.598-3.727 8.325-8.325 8.325h-42.146v5.724c0 5.747 4.659 10.406 10.407 10.406h45.789c5.747 0 10.407-4.659 10.407-10.406v-45.789c-.001-5.747-4.661-10.406-10.408-10.406z" fill="#de5ca3"/><path d="m501.593 222.699h-5.724v42.146c0 4.598-3.727 8.325-8.325 8.325h-368.91v5.724c0 5.747 4.659 10.406 10.406 10.406h372.553c5.747 0 10.407-4.659 10.407-10.406v-45.789c0-5.747-4.659-10.406-10.407-10.406z" fill="#b2e5fb"/><path d="m56.195 418.341h-45.788c-5.748 0-10.407-4.659-10.407-10.406v-45.789c0-5.747 4.659-10.407 10.407-10.407h45.789c5.747 0 10.407 4.659 10.407 10.407v45.789c-.001 5.747-4.661 10.406-10.408 10.406z" fill="#e279b3"/><path d="m501.593 418.341h-372.552c-5.747 0-10.406-4.659-10.406-10.406v-45.789c0-5.747 4.659-10.407 10.406-10.407h372.553c5.747 0 10.407 4.659 10.407 10.407v45.789c-.001 5.747-4.66 10.406-10.408 10.406z" fill="#d3effd"/><path d="m56.195 351.74h-5.724v42.146c0 4.598-3.727 8.325-8.325 8.325h-42.146v5.724c0 5.747 4.659 10.406 10.407 10.406h45.789c5.747 0 10.407-4.659 10.407-10.406v-45.789c-.001-5.747-4.661-10.406-10.408-10.406z" fill="#de5ca3"/><path d="m501.593 351.74h-5.724v42.146c0 4.598-3.727 8.325-8.325 8.325h-368.91v5.724c0 5.747 4.659 10.406 10.406 10.406h372.553c5.747 0 10.407-4.659 10.407-10.406v-45.789c0-5.747-4.659-10.406-10.407-10.406z" fill="#b2e5fb"/></g></svg>