<svg width="192" height="192" viewBox="0 0 192 192" fill="current" stroke="current" xmlns="http://www.w3.org/2000/svg">
    <rect x="58.8115" y="33.0908" width="149.999" height="19.9756" rx="9.9878" transform="rotate(34.5 58.8115 33.0908)" />
    <rect x="86.5884" y="27.943" width="130.073" height="19.9757" rx="9.98787" transform="rotate(34.5 86.5884 27.943)" />
    <rect x="19.7217" y="54.7012" width="130.023" height="19.9756" rx="9.9878" transform="rotate(34.5 19.7217 54.7012)" />
    <rect x="8.40662" y="71.1625" width="130.023" height="19.9756" rx="9.98782" transform="rotate(34.5 8.40662 71.1625)" />
    <rect x="14.5736" y="26.9231" width="169.974" height="19.9756" rx="9.98782" transform="rotate(34.5 14.5736 26.9231)" />
    <rect x="13.5554" y="98.9386" width="39.9513" height="19.9756" rx="9.98778" transform="rotate(34.5 13.5554 98.9386)" />
    <rect x="18.7037" y="126.718" width="19.9756" height="19.9756" rx="9.9878" transform="rotate(34.5 18.7037 126.718)" />
    <path d="M4.81188 129.292C5.76178 134.417 12.434 135.835 15.3864 131.539C17.2166 128.876 16.5415 125.234 13.8785 123.404C9.5828 120.451 3.86198 124.166 4.81188 129.292Z" />
</svg>